<svg width="414" height="157" viewBox="0 0 414 157" fill="none" xmlns="http://www.w3.org/2000/svg">
<path d="M166.848 110.2V127H165.624V111.304H154.248V127H153.024V110.2H166.848ZM182.259 114.472V127H181.059V115.552H174.531L174.363 118.888C174.267 120.616 174.123 122.064 173.931 123.232C173.739 124.4 173.411 125.344 172.947 126.064C172.483 126.784 171.843 127.144 171.027 127.144C170.787 127.144 170.443 127.088 169.995 126.976L170.115 125.944C170.371 126.008 170.563 126.04 170.691 126.04C171.363 126.04 171.875 125.712 172.227 125.056C172.579 124.4 172.819 123.584 172.947 122.608C173.075 121.632 173.179 120.36 173.259 118.792L173.475 114.472H182.259ZM192.436 127.096C191.252 127.096 190.18 126.824 189.22 126.28C188.276 125.736 187.532 124.984 186.988 124.024C186.444 123.048 186.172 121.952 186.172 120.736C186.172 119.52 186.444 118.432 186.988 117.472C187.532 116.496 188.276 115.736 189.22 115.192C190.18 114.648 191.252 114.376 192.436 114.376C193.62 114.376 194.684 114.648 195.628 115.192C196.588 115.736 197.34 116.496 197.884 117.472C198.428 118.432 198.7 119.52 198.7 120.736C198.7 121.952 198.428 123.048 197.884 124.024C197.34 124.984 196.588 125.736 195.628 126.28C194.684 126.824 193.62 127.096 192.436 127.096ZM192.436 126.016C193.396 126.016 194.252 125.792 195.004 125.344C195.772 124.896 196.372 124.272 196.804 123.472C197.252 122.672 197.476 121.76 197.476 120.736C197.476 119.712 197.252 118.8 196.804 118C196.372 117.2 195.772 116.576 195.004 116.128C194.252 115.68 193.396 115.456 192.436 115.456C191.476 115.456 190.612 115.68 189.844 116.128C189.092 116.576 188.492 117.2 188.044 118C187.612 118.8 187.396 119.712 187.396 120.736C187.396 121.76 187.612 122.672 188.044 123.472C188.492 124.272 189.092 124.896 189.844 125.344C190.612 125.792 191.476 126.016 192.436 126.016ZM219.456 114.472V127H202.608V114.472H203.808V125.944H210.456V114.472H211.656V125.944H218.256V114.472H219.456ZM221.424 125.944V129.832H220.272V127H218.16V125.944H221.424ZM228.791 114.376C230.343 114.376 231.535 114.776 232.367 115.576C233.199 116.36 233.615 117.52 233.615 119.056V127H232.463V124.768C232.063 125.504 231.479 126.08 230.711 126.496C229.943 126.896 229.023 127.096 227.951 127.096C226.559 127.096 225.455 126.768 224.639 126.112C223.839 125.456 223.439 124.592 223.439 123.52C223.439 122.48 223.807 121.64 224.543 121C225.295 120.344 226.487 120.016 228.119 120.016H232.415V119.008C232.415 117.84 232.095 116.952 231.455 116.344C230.831 115.736 229.911 115.432 228.695 115.432C227.863 115.432 227.063 115.576 226.295 115.864C225.543 116.152 224.903 116.536 224.375 117.016L223.775 116.152C224.399 115.592 225.151 115.16 226.031 114.856C226.911 114.536 227.831 114.376 228.791 114.376ZM228.119 126.112C229.159 126.112 230.039 125.872 230.759 125.392C231.495 124.912 232.047 124.216 232.415 123.304V120.952H228.143C226.911 120.952 226.015 121.176 225.455 121.624C224.911 122.072 224.639 122.688 224.639 123.472C224.639 124.288 224.943 124.936 225.551 125.416C226.159 125.88 227.015 126.112 228.119 126.112ZM250.199 120.472C251.127 120.648 251.839 121 252.335 121.528C252.847 122.04 253.103 122.672 253.103 123.424C253.103 124.16 252.855 124.808 252.359 125.368C251.879 125.928 251.223 126.36 250.391 126.664C249.559 126.968 248.655 127.12 247.679 127.12C246.783 127.12 245.903 126.984 245.039 126.712C244.191 126.424 243.447 126.016 242.807 125.488L243.287 124.6C243.847 125.08 244.511 125.448 245.279 125.704C246.063 125.96 246.855 126.088 247.655 126.088C248.839 126.088 249.839 125.84 250.655 125.344C251.471 124.832 251.879 124.16 251.879 123.328C251.879 122.592 251.535 122.016 250.847 121.6C250.175 121.168 249.263 120.952 248.111 120.952H246.095V120.04H248.062C249.071 120.04 249.895 119.84 250.535 119.44C251.191 119.04 251.519 118.504 251.519 117.832C251.519 117.048 251.159 116.448 250.439 116.032C249.735 115.6 248.831 115.384 247.727 115.384C246.319 115.384 244.991 115.744 243.743 116.464L243.383 115.504C244.791 114.72 246.287 114.328 247.871 114.328C249.263 114.328 250.423 114.632 251.351 115.24C252.279 115.832 252.743 116.64 252.743 117.664C252.743 118.32 252.511 118.896 252.047 119.392C251.583 119.888 250.967 120.248 250.199 120.472ZM261.439 114.376C262.991 114.376 264.183 114.776 265.015 115.576C265.847 116.36 266.263 117.52 266.263 119.056V127H265.111V124.768C264.711 125.504 264.127 126.08 263.359 126.496C262.591 126.896 261.671 127.096 260.599 127.096C259.207 127.096 258.103 126.768 257.287 126.112C256.487 125.456 256.087 124.592 256.087 123.52C256.087 122.48 256.455 121.64 257.191 121C257.943 120.344 259.135 120.016 260.767 120.016H265.063V119.008C265.063 117.84 264.743 116.952 264.103 116.344C263.479 115.736 262.559 115.432 261.343 115.432C260.511 115.432 259.711 115.576 258.943 115.864C258.191 116.152 257.551 116.536 257.023 117.016L256.423 116.152C257.047 115.592 257.799 115.16 258.679 114.856C259.559 114.536 260.479 114.376 261.439 114.376ZM260.767 126.112C261.807 126.112 262.687 125.872 263.407 125.392C264.143 124.912 264.695 124.216 265.063 123.304V120.952H260.791C259.559 120.952 258.663 121.176 258.103 121.624C257.559 122.072 257.287 122.688 257.287 123.472C257.287 124.288 257.591 124.936 258.199 125.416C258.807 125.88 259.663 126.112 260.767 126.112ZM276.947 114.664C278.115 114.664 279.147 114.928 280.043 115.456C280.955 115.968 281.667 116.688 282.179 117.616C282.691 118.544 282.947 119.616 282.947 120.832C282.947 122.048 282.683 123.136 282.155 124.096C281.643 125.04 280.915 125.784 279.971 126.328C279.043 126.856 277.979 127.12 276.779 127.12C275.403 127.12 274.227 126.784 273.251 126.112C272.291 125.44 271.555 124.488 271.043 123.256C270.547 122.024 270.299 120.584 270.299 118.936C270.299 117.064 270.523 115.512 270.971 114.28C271.435 113.048 272.123 112.08 273.035 111.376C273.963 110.656 275.147 110.12 276.587 109.768L282.131 108.424L282.323 109.552L277.043 110.8C275.747 111.104 274.691 111.552 273.875 112.144C273.075 112.72 272.475 113.512 272.075 114.52C271.675 115.528 271.467 116.816 271.451 118.384C271.867 117.232 272.563 116.328 273.539 115.672C274.515 115 275.651 114.664 276.947 114.664ZM276.803 126.088C277.747 126.088 278.595 125.864 279.347 125.416C280.099 124.968 280.683 124.352 281.099 123.568C281.515 122.768 281.723 121.864 281.723 120.856C281.723 119.848 281.515 118.96 281.099 118.192C280.683 117.408 280.099 116.808 279.347 116.392C278.611 115.96 277.763 115.744 276.803 115.744C275.843 115.744 274.987 115.96 274.235 116.392C273.483 116.808 272.899 117.408 272.483 118.192C272.067 118.96 271.859 119.848 271.859 120.856C271.859 121.864 272.067 122.768 272.483 123.568C272.899 124.352 273.483 124.968 274.235 125.416C274.987 125.864 275.843 126.088 276.803 126.088ZM296.737 114.472L290.305 128.704C289.825 129.808 289.265 130.592 288.625 131.056C288.001 131.52 287.257 131.752 286.393 131.752C285.817 131.752 285.273 131.656 284.761 131.464C284.265 131.272 283.841 130.992 283.489 130.624L284.089 129.712C284.729 130.368 285.505 130.696 286.417 130.696C287.025 130.696 287.545 130.528 287.977 130.192C288.409 129.856 288.809 129.28 289.177 128.464L289.849 126.952L284.209 114.472H285.481L290.497 125.68L295.513 114.472H296.737ZM310.978 125.944V130.12H309.85V127H297.994V130.12H296.842V125.944H297.586C298.434 125.896 299.01 125.24 299.314 123.976C299.634 122.696 299.858 120.904 299.986 118.6L300.154 114.472H308.962V125.944H310.978ZM301.09 118.672C301.01 120.576 300.85 122.16 300.61 123.424C300.37 124.688 299.938 125.528 299.314 125.944H307.762V115.552H301.234L301.09 118.672ZM319.514 127.096C318.33 127.096 317.258 126.824 316.298 126.28C315.354 125.736 314.61 124.984 314.066 124.024C313.522 123.048 313.25 121.952 313.25 120.736C313.25 119.52 313.522 118.432 314.066 117.472C314.61 116.496 315.354 115.736 316.298 115.192C317.258 114.648 318.33 114.376 319.514 114.376C320.698 114.376 321.762 114.648 322.706 115.192C323.666 115.736 324.418 116.496 324.962 117.472C325.506 118.432 325.778 119.52 325.778 120.736C325.778 121.952 325.506 123.048 324.962 124.024C324.418 124.984 323.666 125.736 322.706 126.28C321.762 126.824 320.698 127.096 319.514 127.096ZM319.514 126.016C320.474 126.016 321.33 125.792 322.082 125.344C322.85 124.896 323.45 124.272 323.882 123.472C324.33 122.672 324.554 121.76 324.554 120.736C324.554 119.712 324.33 118.8 323.882 118C323.45 117.2 322.85 116.576 322.082 116.128C321.33 115.68 320.474 115.456 319.514 115.456C318.554 115.456 317.69 115.68 316.922 116.128C316.17 116.576 315.57 117.2 315.122 118C314.69 118.8 314.474 119.712 314.474 120.736C314.474 121.76 314.69 122.672 315.122 123.472C315.57 124.272 316.17 124.896 316.922 125.344C317.69 125.792 318.554 126.016 319.514 126.016ZM337.102 120.544C338.942 120.864 339.862 121.896 339.862 123.64C339.862 124.728 339.462 125.56 338.662 126.136C337.878 126.712 336.694 127 335.11 127H329.686V114.472H334.966C336.358 114.472 337.446 114.752 338.23 115.312C339.03 115.856 339.43 116.64 339.43 117.664C339.43 118.4 339.222 119.016 338.806 119.512C338.406 119.992 337.838 120.336 337.102 120.544ZM330.862 120.184H334.894C335.966 120.184 336.79 119.984 337.366 119.584C337.942 119.168 338.23 118.576 338.23 117.808C338.23 117.024 337.942 116.44 337.366 116.056C336.806 115.656 335.982 115.456 334.894 115.456H330.862V120.184ZM335.086 126.016C337.47 126.016 338.662 125.208 338.662 123.592C338.662 122.744 338.39 122.12 337.846 121.72C337.302 121.32 336.446 121.12 335.278 121.12H330.862V126.016H335.086ZM344.123 114.472H345.323V125.152L354.251 114.472H355.307V127H354.107V116.32L345.179 127H344.123V114.472Z" fill="black"/>
<path d="M157.112 55.176C157.112 57.64 157.168 59.712 157.28 61.392C157.429 63.072 157.691 64.7893 158.064 66.544C158.475 68.2613 159.128 69.568 160.024 70.464C160.92 71.36 162.059 71.808 163.44 71.808C164.56 71.808 165.512 71.4907 166.296 70.856C167.08 70.184 167.696 69.3627 168.144 68.392C168.592 67.4213 168.947 66.1707 169.208 64.64C169.469 63.072 169.637 61.5787 169.712 60.16C169.787 58.7413 169.824 57.08 169.824 55.176C169.824 44.2 167.696 38.712 163.44 38.712C162.059 38.712 160.92 39.216 160.024 40.224C159.128 41.1947 158.475 42.576 158.064 44.368C157.691 46.16 157.429 47.8773 157.28 49.52C157.168 51.1253 157.112 53.0107 157.112 55.176ZM163.44 75.84C162.021 75.84 160.733 75.5973 159.576 75.112C158.419 74.664 157.467 74.0853 156.72 73.376C155.973 72.6667 155.32 71.7333 154.76 70.576C154.237 69.4187 153.827 68.2987 153.528 67.216C153.229 66.096 152.987 64.7707 152.8 63.24C152.651 61.7093 152.557 60.384 152.52 59.264C152.483 58.1067 152.464 56.744 152.464 55.176C152.464 53.5707 152.501 52.1333 152.576 50.864C152.651 49.5947 152.8 48.1013 153.024 46.384C153.248 44.6667 153.603 43.1733 154.088 41.904C154.611 40.6347 155.245 39.4213 155.992 38.264C156.776 37.1067 157.803 36.2293 159.072 35.632C160.341 34.9973 161.797 34.68 163.44 34.68C165.083 34.68 166.539 34.9973 167.808 35.632C169.077 36.2293 170.104 37.1067 170.888 38.264C171.672 39.4213 172.307 40.6347 172.792 41.904C173.315 43.136 173.688 44.6107 173.912 46.328C174.136 48.0453 174.285 49.5573 174.36 50.864C174.435 52.1333 174.472 53.5707 174.472 55.176C174.472 57.0427 174.435 58.6293 174.36 59.936C174.323 61.2427 174.192 62.792 173.968 64.584C173.744 66.3387 173.389 67.8133 172.904 69.008C172.419 70.1653 171.784 71.3227 171 72.48C170.216 73.6 169.171 74.44 167.864 75C166.595 75.56 165.12 75.84 163.44 75.84ZM186.818 69.624H191.69V75H186.818V69.624ZM211.807 56.24V52.208C214.607 52.208 216.698 51.704 218.079 50.696C219.461 49.688 220.151 47.896 220.151 45.32C220.151 40.9147 218.266 38.712 214.495 38.712C212.517 38.712 211.061 39.4587 210.127 40.952C209.231 42.4453 208.783 44.3307 208.783 46.608H204.527C204.527 43.136 205.423 40.28 207.215 38.04C209.045 35.8 211.565 34.68 214.775 34.68C217.762 34.68 220.151 35.6133 221.943 37.48C223.773 39.3093 224.687 41.7173 224.687 44.704C224.687 47.0187 224.183 49.016 223.175 50.696C222.205 52.3387 220.674 53.4213 218.583 53.944C223.362 55.0267 225.751 58.4053 225.751 64.08C225.751 67.6267 224.818 70.4827 222.951 72.648C221.122 74.776 218.378 75.84 214.719 75.84C211.061 75.84 208.317 74.6827 206.487 72.368C204.658 70.016 203.743 66.8987 203.743 63.016H208.167C208.167 68.8773 210.351 71.808 214.719 71.808C216.847 71.808 218.471 71.1547 219.591 69.848C220.711 68.504 221.271 66.7493 221.271 64.584C221.271 61.1867 220.581 58.9467 219.199 57.864C217.818 56.7813 215.354 56.24 211.807 56.24ZM257.039 45.096H272.831V48.68H261.295V75H257.039V45.096ZM295.355 58.704C294.683 59.1147 293.805 59.5627 292.723 60.048C291.64 60.496 290.744 60.888 290.035 61.224C289.363 61.56 288.672 62.008 287.963 62.568C287.291 63.0907 286.768 63.7627 286.395 64.584C286.059 65.368 285.891 66.3013 285.891 67.384C285.891 70.4453 287.216 71.976 289.867 71.976C293.525 71.976 295.355 69.96 295.355 65.928V58.704ZM286.451 53.16H282.643C282.643 47.2613 285.517 44.312 291.267 44.312C294.067 44.312 296.157 45.04 297.539 46.496C298.92 47.9147 299.611 49.7253 299.611 51.928V69.568C299.611 71.1733 300.152 71.976 301.235 71.976C301.571 71.976 301.888 71.9387 302.187 71.864V75C301.813 75.224 301.235 75.336 300.451 75.336C298.995 75.336 297.931 75.0747 297.259 74.552C296.624 74.0293 296.157 72.8347 295.859 70.968H295.747C295.224 72.312 294.328 73.4507 293.059 74.384C291.827 75.3173 290.52 75.784 289.139 75.784C284.024 75.784 281.467 73.04 281.467 67.552C281.467 65.0133 282.008 63.1093 283.091 61.84C284.211 60.5707 286.152 59.3947 288.915 58.312C291.08 57.4907 292.853 56.744 294.235 56.072C294.981 55.736 295.355 54.56 295.355 52.544C295.355 50.8267 295.019 49.632 294.347 48.96C293.675 48.2507 292.499 47.896 290.819 47.896C289.251 47.896 288.131 48.3253 287.459 49.184C286.787 50.0427 286.451 51.368 286.451 53.16Z" fill="black"/>
<path d="M157.28 61.392L156.282 61.4585L156.283 61.4695L156.284 61.4805L157.28 61.392ZM158.064 66.544L157.086 66.7521L157.089 66.7644L157.091 66.7766L158.064 66.544ZM160.024 70.464L159.317 71.1711L160.024 70.464ZM166.296 70.856L166.925 71.6332L166.936 71.6244L166.947 71.6153L166.296 70.856ZM168.144 68.392L167.236 67.9729L168.144 68.392ZM169.208 64.64L170.194 64.8083L170.194 64.8044L169.208 64.64ZM169.712 60.16L170.711 60.2126L169.712 60.16ZM160.024 40.224L160.759 40.9023L160.765 40.8954L160.771 40.8884L160.024 40.224ZM158.064 44.368L157.089 44.1446L157.087 44.1543L157.085 44.164L158.064 44.368ZM157.28 49.52L156.284 49.4295L156.283 49.4399L156.282 49.4504L157.28 49.52ZM159.576 75.112L159.963 74.1898L159.95 74.1844L159.937 74.1794L159.576 75.112ZM156.72 73.376L157.409 72.651L156.72 73.376ZM154.76 70.576L153.849 70.9876L153.854 70.9996L153.86 71.0116L154.76 70.576ZM153.528 67.216L152.562 67.4737L152.564 67.4819L153.528 67.216ZM152.8 63.24L151.805 63.3371L151.806 63.3491L151.807 63.3611L152.8 63.24ZM152.52 59.264L151.521 59.2962L151.521 59.2973L152.52 59.264ZM152.576 50.864L153.574 50.9227L152.576 50.864ZM154.088 41.904L153.163 41.5232L153.158 41.535L153.154 41.5469L154.088 41.904ZM155.992 38.264L155.164 37.7032L155.158 37.7124L155.152 37.7219L155.992 38.264ZM159.072 35.632L159.498 36.5368L159.509 36.5317L159.519 36.5264L159.072 35.632ZM167.808 35.632L167.361 36.5264L167.371 36.5317L167.382 36.5368L167.808 35.632ZM172.792 41.904L171.858 42.2611L171.864 42.278L171.871 42.2945L172.792 41.904ZM173.912 46.328L172.92 46.4573L173.912 46.328ZM174.36 50.864L173.362 50.921L173.362 50.9227L174.36 50.864ZM174.36 59.936L173.362 59.879L173.361 59.8932L173.36 59.9074L174.36 59.936ZM173.968 64.584L174.96 64.7106L174.96 64.708L173.968 64.584ZM172.904 69.008L173.826 69.3947L173.83 69.3844L172.904 69.008ZM171 72.48L171.819 73.0535L171.824 73.0472L171.828 73.0408L171 72.48ZM167.864 75L167.47 74.0808L167.46 74.0851L167.864 75ZM156.112 55.176C156.112 57.653 156.168 59.7488 156.282 61.4585L158.278 61.3255C158.168 59.6752 158.112 57.6269 158.112 55.176H156.112ZM156.284 61.4805C156.437 63.2032 156.705 64.9605 157.086 66.7521L159.042 66.3359C158.677 64.6182 158.422 62.9408 158.276 61.3035L156.284 61.4805ZM157.091 66.7766C157.529 68.6059 158.249 70.1028 159.317 71.1711L160.731 69.7569C160.007 69.0332 159.42 67.9168 159.037 66.3114L157.091 66.7766ZM159.317 71.1711C160.418 72.2725 161.82 72.808 163.44 72.808V70.808C162.298 70.808 161.422 70.4475 160.731 69.7569L159.317 71.1711ZM163.44 72.808C164.762 72.808 165.943 72.4281 166.925 71.6332L165.667 70.0788C165.081 70.5533 164.358 70.808 163.44 70.808V72.808ZM166.947 71.6153C167.844 70.8463 168.546 69.9076 169.052 68.8111L167.236 67.9729C166.846 68.8178 166.316 69.5217 165.645 70.0967L166.947 71.6153ZM169.052 68.8111C169.549 67.7335 169.924 66.3902 170.194 64.8083L168.222 64.4717C167.97 65.9511 167.635 67.1092 167.236 67.9729L169.052 68.8111ZM170.194 64.8044C170.461 63.2037 170.634 61.6728 170.711 60.2126L168.713 60.1074C168.641 61.4845 168.477 62.9403 168.222 64.4756L170.194 64.8044ZM170.711 60.2126C170.786 58.7717 170.824 57.0921 170.824 55.176H168.824C168.824 57.0679 168.787 58.711 168.713 60.1074L170.711 60.2126ZM170.824 55.176C170.824 49.6524 170.293 45.3863 169.16 42.4665C168.591 40.9988 167.847 39.81 166.885 38.9827C165.903 38.1389 164.74 37.712 163.44 37.712V39.712C164.268 39.712 164.967 39.9711 165.581 40.4993C166.215 41.044 166.801 41.9132 167.296 43.1895C168.291 45.7577 168.824 49.7236 168.824 55.176H170.824ZM163.44 37.712C161.781 37.712 160.368 38.3323 159.277 39.5596L160.771 40.8884C161.472 40.0997 162.336 39.712 163.44 39.712V37.712ZM159.289 39.5457C158.238 40.685 157.524 42.246 157.089 44.1446L159.039 44.5914C159.425 42.906 160.018 41.7043 160.759 40.9023L159.289 39.5457ZM157.085 44.164C156.705 45.9895 156.437 47.7448 156.284 49.4295L158.276 49.6105C158.421 48.0098 158.677 46.3305 159.043 44.572L157.085 44.164ZM156.282 49.4504C156.168 51.0852 156.112 52.9948 156.112 55.176H158.112C158.112 53.0265 158.168 51.1654 158.278 49.5896L156.282 49.4504ZM163.44 74.84C162.137 74.84 160.983 74.6175 159.963 74.1898L159.189 76.0342C160.484 76.5772 161.906 76.84 163.44 76.84V74.84ZM159.937 74.1794C158.877 73.7691 158.043 73.254 157.409 72.651L156.031 74.101C156.89 74.9167 157.96 75.5589 159.215 76.0446L159.937 74.1794ZM157.409 72.651C156.768 72.0424 156.18 71.2152 155.66 70.1404L153.86 71.0116C154.46 72.2514 155.179 73.291 156.031 74.101L157.409 72.651ZM155.671 70.1644C155.167 69.0482 154.775 67.9769 154.492 66.9501L152.564 67.4819C152.878 68.6204 153.307 69.7891 153.849 70.9876L155.671 70.1644ZM154.494 66.9583C154.211 65.8951 153.975 64.6176 153.793 63.1189L151.807 63.3611C151.998 64.9238 152.248 66.2969 152.562 67.4737L154.494 66.9583ZM153.795 63.1429C153.647 61.6263 153.556 60.3232 153.519 59.2307L151.521 59.2973C151.559 60.4448 151.654 61.7924 151.805 63.3371L153.795 63.1429ZM153.519 59.2318C153.483 58.0882 153.464 56.7367 153.464 55.176H151.464C151.464 56.7513 151.483 58.1252 151.521 59.2962L153.519 59.2318ZM153.464 55.176C153.464 53.5854 153.501 52.1682 153.574 50.9227L151.578 50.8053C151.502 52.0984 151.464 53.5559 151.464 55.176H153.464ZM153.574 50.9227C153.647 49.6837 153.794 48.215 154.016 46.5133L152.032 46.2547C151.806 47.9877 151.654 49.5056 151.578 50.8053L153.574 50.9227ZM154.016 46.5133C154.232 44.8538 154.571 43.4402 155.022 42.2611L153.154 41.5469C152.634 42.9064 152.264 44.4795 152.032 46.2547L154.016 46.5133ZM155.013 42.2847C155.512 41.0719 156.118 39.9125 156.832 38.8061L155.152 37.7219C154.372 38.9301 153.709 40.1975 153.163 41.5232L155.013 42.2847ZM156.82 38.8248C157.503 37.8168 158.39 37.058 159.498 36.5368L158.646 34.7272C157.215 35.4007 156.049 36.3966 155.164 37.7032L156.82 38.8248ZM159.519 36.5264C160.629 35.9714 161.928 35.68 163.44 35.68V33.68C161.667 33.68 160.053 34.0233 158.625 34.7376L159.519 36.5264ZM163.44 35.68C164.952 35.68 166.251 35.9714 167.361 36.5264L168.255 34.7376C166.827 34.0233 165.213 33.68 163.44 33.68V35.68ZM167.382 36.5368C168.49 37.058 169.377 37.8168 170.06 38.8248L171.716 37.7032C170.831 36.3966 169.665 35.4007 168.234 34.7272L167.382 36.5368ZM170.06 38.8248C170.802 39.9204 171.401 41.0656 171.858 42.2611L173.726 41.5469C173.213 40.2037 172.542 38.9223 171.716 37.7032L170.06 38.8248ZM171.871 42.2945C172.35 43.4228 172.705 44.805 172.92 46.4573L174.904 46.1987C174.671 44.4163 174.279 42.8492 173.713 41.5134L171.871 42.2945ZM172.92 46.4573C173.142 48.1578 173.289 49.6448 173.362 50.921L175.358 50.8069C175.282 49.4698 175.13 47.9328 174.904 46.1987L172.92 46.4573ZM173.362 50.9227C173.435 52.1682 173.472 53.5854 173.472 55.176H175.472C175.472 53.5559 175.434 52.0984 175.358 50.8053L173.362 50.9227ZM173.472 55.176C173.472 57.0309 173.435 58.5974 173.362 59.879L175.358 59.993C175.434 58.6613 175.472 57.0544 175.472 55.176H173.472ZM173.36 59.9074C173.324 61.1728 173.197 62.6887 172.976 64.46L174.96 64.708C175.187 62.8953 175.321 61.3126 175.36 59.9646L173.36 59.9074ZM172.976 64.4574C172.759 66.1557 172.421 67.5404 171.978 68.6316L173.83 69.3844C174.358 68.0862 174.729 66.5217 174.96 64.7106L172.976 64.4574ZM171.982 68.6213C171.525 69.7111 170.923 70.8105 170.172 71.9192L171.828 73.0408C172.645 71.8348 173.313 70.6195 173.826 69.3947L171.982 68.6213ZM170.181 71.9065C169.508 72.8677 168.613 73.5912 167.47 74.0809L168.258 75.9191C169.729 75.2888 170.924 74.3323 171.819 73.0535L170.181 71.9065ZM167.46 74.0851C166.342 74.5784 165.01 74.84 163.44 74.84V76.84C165.23 76.84 166.847 76.5416 168.268 75.9149L167.46 74.0851ZM186.818 69.624V68.624H185.818V69.624H186.818ZM191.69 69.624H192.69V68.624H191.69V69.624ZM191.69 75V76H192.69V75H191.69ZM186.818 75H185.818V76H186.818V75ZM186.818 70.624H191.69V68.624H186.818V70.624ZM190.69 69.624V75H192.69V69.624H190.69ZM191.69 74H186.818V76H191.69V74ZM187.818 75V69.624H185.818V75H187.818ZM211.807 56.24H210.807V57.24H211.807V56.24ZM211.807 52.208V51.208H210.807V52.208H211.807ZM210.127 40.952L209.279 40.422L209.275 40.4297L209.27 40.4375L210.127 40.952ZM208.783 46.608V47.608H209.783V46.608H208.783ZM204.527 46.608H203.527V47.608H204.527V46.608ZM207.215 38.04L206.441 37.4074L206.435 37.4153L207.215 38.04ZM221.943 37.48L221.222 38.1725L221.229 38.1799L221.236 38.1871L221.943 37.48ZM223.175 50.696L222.318 50.1815L222.314 50.1873L223.175 50.696ZM218.583 53.944L218.341 52.9739L218.362 54.9193L218.583 53.944ZM222.951 72.648L222.194 71.9951L222.193 71.9961L222.951 72.648ZM206.487 72.368L205.698 72.982L205.703 72.9881L206.487 72.368ZM203.743 63.016V62.016H202.743V63.016H203.743ZM208.167 63.016H209.167V62.016H208.167V63.016ZM219.591 69.848L220.351 70.4989L220.36 70.4882L219.591 69.848ZM219.199 57.864L219.816 57.0769L219.199 57.864ZM212.807 56.24V52.208H210.807V56.24H212.807ZM211.807 53.208C214.696 53.208 217.038 52.6938 218.669 51.5038L217.49 49.8882C216.358 50.7142 214.519 51.208 211.807 51.208V53.208ZM218.669 51.5038C220.419 50.2265 221.151 48.0472 221.151 45.32H219.151C219.151 47.7448 218.502 49.1495 217.49 49.8882L218.669 51.5038ZM221.151 45.32C221.151 42.998 220.658 41.0698 219.497 39.7137C218.311 38.3279 216.579 37.712 214.495 37.712V39.712C216.182 39.712 217.279 40.1975 217.978 41.0143C218.702 41.8608 219.151 43.2367 219.151 45.32H221.151ZM214.495 37.712C212.222 37.712 210.421 38.5958 209.279 40.422L210.975 41.482C211.701 40.3215 212.811 39.712 214.495 39.712V37.712ZM209.27 40.4375C208.256 42.1271 207.783 44.2039 207.783 46.608H209.783C209.783 44.4574 210.207 42.7635 210.985 41.4665L209.27 40.4375ZM208.783 45.608H204.527V47.608H208.783V45.608ZM205.527 46.608C205.527 43.3137 206.374 40.6923 207.996 38.6647L206.435 37.4153C204.473 39.8677 203.527 42.9583 203.527 46.608H205.527ZM207.99 38.6725C209.607 36.6927 211.827 35.68 214.775 35.68V33.68C211.302 33.68 208.483 34.9073 206.441 37.4075L207.99 38.6725ZM214.775 35.68C217.536 35.68 219.648 36.533 221.222 38.1725L222.665 36.7875C220.655 34.6936 217.989 33.68 214.775 33.68V35.68ZM221.236 38.1871C222.849 39.7997 223.687 41.9382 223.687 44.704H225.687C225.687 41.4965 224.697 38.819 222.65 36.7729L221.236 38.1871ZM223.687 44.704C223.687 46.8706 223.217 48.6831 222.318 50.1815L224.033 51.2105C225.15 49.3489 225.687 47.1667 225.687 44.704H223.687ZM222.314 50.1873C221.498 51.5689 220.209 52.5069 218.341 52.9739L218.826 54.9141C221.139 54.3358 222.911 53.1084 224.036 51.2047L222.314 50.1873ZM218.362 54.9193C220.558 55.4167 222.116 56.4157 223.143 57.8674C224.181 59.3355 224.751 61.3745 224.751 64.08H226.751C226.751 61.1108 226.127 58.6231 224.776 56.7126C223.413 54.7856 221.388 53.554 218.804 52.9687L218.362 54.9193ZM224.751 64.08C224.751 67.4467 223.869 70.0519 222.194 71.9951L223.709 73.3009C225.767 70.9134 226.751 67.8066 226.751 64.08H224.751ZM222.193 71.9961C220.608 73.8403 218.181 74.84 214.719 74.84V76.84C218.575 76.84 221.636 75.7117 223.71 73.2999L222.193 71.9961ZM214.719 74.84C211.286 74.84 208.867 73.7656 207.272 71.7479L205.703 72.9881C207.767 75.5997 210.836 76.84 214.719 76.84V74.84ZM207.277 71.7541C205.62 69.6245 204.743 66.744 204.743 63.016H202.743C202.743 67.0533 203.696 70.4075 205.698 72.9819L207.277 71.7541ZM203.743 64.016H208.167V62.016H203.743V64.016ZM207.167 63.016C207.167 66.0418 207.726 68.4932 209.004 70.2075C210.322 71.9771 212.289 72.808 214.719 72.808V70.808C212.782 70.808 211.473 70.1736 210.607 69.0125C209.701 67.7961 209.167 65.8515 209.167 63.016H207.167ZM214.719 72.808C217.064 72.808 218.997 72.0784 220.351 70.4988L218.832 69.1972C217.946 70.231 216.631 70.808 214.719 70.808V72.808ZM220.36 70.4882C221.662 68.9248 222.271 66.9259 222.271 64.584H220.271C220.271 66.5728 219.76 68.0832 218.823 69.2078L220.36 70.4882ZM222.271 64.584C222.271 61.1428 221.59 58.4672 219.816 57.0769L218.582 58.6511C219.571 59.4261 220.271 61.2306 220.271 64.584H222.271ZM219.816 57.0769C218.152 55.7725 215.387 55.24 211.807 55.24V57.24C215.321 57.24 217.484 57.7902 218.582 58.6511L219.816 57.0769ZM257.039 45.096V44.096H256.039V45.096H257.039ZM272.831 45.096H273.831V44.096H272.831V45.096ZM272.831 48.68V49.68H273.831V48.68H272.831ZM261.295 48.68V47.68H260.295V48.68H261.295ZM261.295 75V76H262.295V75H261.295ZM257.039 75H256.039V76H257.039V75ZM257.039 46.096H272.831V44.096H257.039V46.096ZM271.831 45.096V48.68H273.831V45.096H271.831ZM272.831 47.68H261.295V49.68H272.831V47.68ZM260.295 48.68V75H262.295V48.68H260.295ZM261.295 74H257.039V76H261.295V74ZM258.039 75V45.096H256.039V75H258.039ZM295.355 58.704H296.355V56.9209L294.833 57.8507L295.355 58.704ZM292.723 60.048L293.105 60.972L293.118 60.9665L293.132 60.9605L292.723 60.048ZM290.035 61.224L289.606 60.3203L289.597 60.3248L289.587 60.3296L290.035 61.224ZM287.963 62.568L288.577 63.3574L288.582 63.3529L287.963 62.568ZM286.395 64.584L285.484 64.1702L285.48 64.1801L285.475 64.1901L286.395 64.584ZM286.451 53.16V54.16H287.451V53.16H286.451ZM282.643 53.16H281.643V54.16H282.643V53.16ZM297.539 46.496L296.813 47.1843L296.822 47.1936L297.539 46.496ZM302.187 71.864H303.187V70.5832L301.944 70.8939L302.187 71.864ZM302.187 75L302.701 75.8575L303.187 75.5662V75H302.187ZM297.259 74.552L296.623 75.3239L296.634 75.3328L296.645 75.3414L297.259 74.552ZM295.859 70.968L296.846 70.81L296.711 69.968H295.859V70.968ZM295.747 70.968V69.968H295.062L294.815 70.6056L295.747 70.968ZM293.059 74.384L292.466 73.5784L292.46 73.5826L292.455 73.5869L293.059 74.384ZM283.091 61.84L282.341 61.1784L282.335 61.1847L282.33 61.1911L283.091 61.84ZM288.915 58.312L288.56 57.3769L288.55 57.3809L288.915 58.312ZM294.235 56.072L293.824 55.1601L293.811 55.1662L293.797 55.1728L294.235 56.072ZM294.347 48.96L293.621 49.6477L293.63 49.6576L293.639 49.6671L294.347 48.96ZM287.459 49.184L286.671 48.5677L287.459 49.184ZM294.833 57.8507C294.21 58.2312 293.375 58.6598 292.314 59.1355L293.132 60.9605C294.236 60.4656 295.155 59.9981 295.876 59.5573L294.833 57.8507ZM292.34 59.124C291.249 59.5756 290.336 59.9746 289.606 60.3203L290.463 62.1277C291.152 61.8014 292.031 61.4164 293.105 60.972L292.34 59.124ZM289.587 60.3296C288.843 60.7015 288.095 61.189 287.343 61.7831L288.582 63.3529C289.248 62.827 289.882 62.4185 290.482 62.1184L289.587 60.3296ZM287.349 61.7786C286.541 62.4066 285.92 63.2106 285.484 64.1702L287.305 64.9978C287.615 64.3147 288.04 63.7747 288.577 63.3573L287.349 61.7786ZM285.475 64.1901C285.074 65.1272 284.891 66.201 284.891 67.384H286.891C286.891 66.4016 287.043 65.6088 287.314 64.9779L285.475 64.1901ZM284.891 67.384C284.891 69.0363 285.245 70.4623 286.129 71.4826C287.036 72.5304 288.347 72.976 289.867 72.976V70.976C288.736 70.976 288.059 70.6562 287.641 70.1734C287.199 69.6631 286.891 68.793 286.891 67.384H284.891ZM289.867 72.976C291.876 72.976 293.56 72.4178 294.723 71.136C295.87 69.8726 296.355 68.0754 296.355 65.928H294.355C294.355 67.8126 293.925 69.0394 293.242 69.792C292.576 70.5262 291.515 70.976 289.867 70.976V72.976ZM296.355 65.928V58.704H294.355V65.928H296.355ZM286.451 52.16H282.643V54.16H286.451V52.16ZM283.643 53.16C283.643 50.3585 284.325 48.4422 285.515 47.222C286.699 46.0065 288.553 45.312 291.267 45.312V43.312C288.231 43.312 285.772 44.0921 284.082 45.826C282.397 47.5551 281.643 50.0629 281.643 53.16H283.643ZM291.267 45.312C293.903 45.312 295.685 45.9956 296.813 47.1843L298.264 45.8077C296.629 44.0844 294.23 43.312 291.267 43.312V45.312ZM296.822 47.1936C298 48.4039 298.611 49.954 298.611 51.928H300.611C300.611 49.4967 299.839 47.4255 298.255 45.7984L296.822 47.1936ZM298.611 51.928V69.568H300.611V51.928H298.611ZM298.611 69.568C298.611 70.4517 298.754 71.2902 299.187 71.9331C299.668 72.6462 300.407 72.976 301.235 72.976V70.976C300.98 70.976 300.906 70.9044 300.846 70.8149C300.738 70.6552 300.611 70.2897 300.611 69.568H298.611ZM301.235 72.976C301.645 72.976 302.044 72.9304 302.429 72.8341L301.944 70.8939C301.732 70.947 301.496 70.976 301.235 70.976V72.976ZM301.187 71.864V75H303.187V71.864H301.187ZM301.672 74.1425C301.534 74.2251 301.178 74.336 300.451 74.336V76.336C301.291 76.336 302.092 76.2229 302.701 75.8575L301.672 74.1425ZM300.451 74.336C299.074 74.336 298.282 74.0814 297.872 73.7626L296.645 75.3414C297.579 76.0679 298.915 76.336 300.451 76.336V74.336ZM297.894 73.7801C297.763 73.6716 297.567 73.4194 297.364 72.9002C297.166 72.3924 296.989 71.7027 296.846 70.81L294.871 71.126C295.027 72.0999 295.233 72.9409 295.501 73.6278C295.765 74.3033 296.12 74.9097 296.623 75.3239L297.894 73.7801ZM295.859 69.968H295.747V71.968H295.859V69.968ZM294.815 70.6056C294.367 71.7563 293.597 72.7467 292.466 73.5784L293.651 75.1897C295.059 74.1546 296.081 72.8677 296.679 71.3304L294.815 70.6056ZM292.455 73.5869C291.375 74.4051 290.276 74.784 289.139 74.784V76.784C290.764 76.784 292.278 76.2296 293.662 75.1811L292.455 73.5869ZM289.139 74.784C286.754 74.784 285.145 74.1477 284.116 73.0442C283.075 71.9275 282.467 70.1587 282.467 67.552H280.467C280.467 70.4333 281.136 72.7805 282.653 74.4078C284.182 76.0483 286.408 76.784 289.139 76.784V74.784ZM282.467 67.552C282.467 65.132 282.986 63.5036 283.851 62.4889L282.33 61.1911C281.03 62.7151 280.467 64.8946 280.467 67.552H282.467ZM283.84 62.5016C284.804 61.41 286.569 60.3053 289.279 59.2431L288.55 57.3809C285.735 58.484 283.618 59.7314 282.341 61.1784L283.84 62.5016ZM289.269 59.247C291.45 58.4198 293.254 57.6612 294.672 56.9712L293.797 55.1728C292.453 55.8268 290.71 56.5616 288.56 57.377L289.269 59.247ZM294.645 56.9839C295.385 56.6507 295.799 55.9617 296.028 55.2406C296.259 54.5126 296.355 53.5983 296.355 52.544H294.355C294.355 53.5057 294.264 54.1874 294.121 54.6354C293.977 55.0903 293.83 55.1573 293.824 55.1601L294.645 56.9839ZM296.355 52.544C296.355 50.7566 296.017 49.2158 295.054 48.2529L293.639 49.6671C294.021 50.0482 294.355 50.8968 294.355 52.544H296.355ZM295.073 48.2723C294.114 47.2602 292.587 46.896 290.819 46.896V48.896C292.41 48.896 293.235 49.2412 293.621 49.6477L295.073 48.2723ZM290.819 46.896C289.084 46.896 287.605 47.3741 286.671 48.5677L288.246 49.8003C288.656 49.2766 289.417 48.896 290.819 48.896V46.896ZM286.671 48.5677C285.798 49.6839 285.451 51.2769 285.451 53.16H287.451C287.451 51.4591 287.776 50.4014 288.246 49.8003L286.671 48.5677Z" fill="black"/>
<rect x="0.5" y="0.5" width="413" height="156" rx="17.5" stroke="#8D3500"/>
<path fill-rule="evenodd" clip-rule="evenodd" d="M92.0203 33.211C85.4449 33.8056 79.5929 35.8584 75.4222 39.0333C71.0913 42.3301 68.4606 47.6605 68.0553 53.9604C67.9713 55.2644 68.0133 56.5399 68.1571 57.0554C68.3911 57.8944 68.3362 58.0449 66.9024 60.5119C66.0777 61.9306 65.4032 63.1246 65.4032 63.1652C65.4032 63.2059 64.7174 64.419 63.8795 65.8608L62.3558 68.4826L64.2416 74.2027C66.1106 79.8721 66.1249 79.934 65.8624 81.1981C65.4263 83.2992 63.4814 84.995 61.4923 85.0085L60.7335 85.0137V89.8883C60.7335 93.5097 60.6586 94.8218 60.4417 94.9925C60.2813 95.1191 59.2042 95.5414 58.0485 95.9316C56.8927 96.3215 52.3748 97.9185 48.0087 99.4803C41.1286 101.941 28.4213 106.46 19.6404 109.567C18.0591 110.127 16.7492 110.74 16.4541 111.059C16.1784 111.357 15.7184 112.305 15.4321 113.165C14.0936 117.187 15.8704 120.52 20.6827 123.013C27.354 126.47 28.2497 126.807 30.7561 126.807C31.4568 126.807 32.3879 126.658 32.8252 126.475C33.9184 126.018 34.9712 124.495 35.1645 123.091L35.3207 121.955L37.462 120.965C38.6397 120.42 42.7553 118.478 46.6078 116.649C60.4729 110.068 63.0198 108.862 67.5045 106.756C70.0086 105.579 73.1607 104.067 74.509 103.396L76.9606 102.175L77.0239 97.3969L77.0874 92.6194L78.3148 91.4431C80.0031 89.8258 80.8813 88.4377 81.5859 86.2724C82.9007 82.2327 83.0045 81.1831 83.0389 71.5884C83.0578 66.257 83.1813 61.8773 83.3482 60.6147C83.7501 57.5749 84.6833 54.3977 85.9201 51.8602C86.8138 50.0262 87.3431 49.298 88.985 47.6437C91.862 44.7455 94.6696 43.2874 100.83 41.4933C105.636 40.0936 108.126 39.6745 111.866 39.6362C115.733 39.5967 117.127 39.9 119.398 41.275C122.163 42.9488 123.13 45.1763 124.248 52.4427C124.83 56.2273 124.975 64.8855 124.51 68.0448C124.095 70.8655 123.319 73.782 122.574 75.3241C120.87 78.8513 120.161 79.4853 115.252 81.8663C113.069 82.9252 107.763 85.4993 103.461 87.5867C99.159 89.6738 91.6539 93.3126 86.783 95.6724C81.9119 98.0325 77.8857 100.004 77.8359 100.054C77.6837 100.206 78.7178 102.081 78.8957 101.976C78.9872 101.922 80.7956 101.039 82.9144 100.014C85.0333 98.9888 91.1797 95.9953 96.5732 93.3616C111.069 86.2827 114.988 84.3781 117.682 83.1031C119.676 82.1593 120.388 81.6723 121.651 80.3895C123.539 78.4722 124.752 76.2482 125.66 73.0367C126.793 69.0308 127.108 65.8206 126.969 59.6807C126.854 54.5646 126.696 53.0297 125.764 48.0066C124.974 43.7532 122.729 40.4242 119.628 38.9091C118.855 38.5311 118.268 38.1013 118.325 37.9537C118.464 37.5906 117.723 37.1372 115.368 36.1451C109.502 33.6735 100.047 32.4851 92.0203 33.211ZM99.3472 35.2369C99.4114 35.3406 98.3407 35.614 96.9678 35.8447C92.2967 36.6294 86.801 38.3287 83.5002 40.0088C81.7484 40.9005 79.2985 42.6887 78.1654 43.9024C76.1467 46.0647 74.2882 50.6757 73.789 54.7594L73.4824 57.2684L72.4196 57.1152C70.1441 56.7874 70.3063 56.995 70.3063 54.411C70.3063 45.8896 74.913 40.1127 84.165 37.0319C87.455 35.9362 90.3114 35.4739 94.9388 35.2876C97.1219 35.1995 98.9807 35.1099 99.0694 35.0879C99.1581 35.0662 99.2832 35.133 99.3472 35.2369ZM111.049 37.0055C111.964 37.2866 111.927 37.2981 109.204 37.5794C106.414 37.8675 100.623 39.1305 98.4411 39.9266C97.799 40.1611 96.8534 40.4863 96.3397 40.6497C93.3152 41.6112 89.7891 43.7798 87.4456 46.1196C84.4316 49.1289 82.7767 52.6384 81.546 58.6301C81.4271 59.2079 81.3188 59.4526 81.305 59.1738C81.2782 58.6315 81.2203 58.6107 78.4782 58.1654C75.5637 57.6922 75.8282 57.959 75.9755 55.6408C76.1359 53.1149 76.7925 50.5784 77.8768 48.293C80.3015 43.1837 87.2413 39.6493 98.3243 37.8785C105.801 36.684 109.236 36.4484 111.049 37.0055ZM105.796 47.6297C105.796 48.7911 105.814 48.8238 106.472 48.8238C106.843 48.8238 107.815 49.0353 108.631 49.2938C113.625 50.8749 116.579 56.0905 116.63 63.4165C116.668 68.8452 115.289 72.3516 111.87 75.5167C108.813 78.3473 105.056 79.3692 101.614 78.3069C100.601 77.9945 99.9926 77.5898 98.894 76.4974C98.1158 75.7236 97.2505 74.6139 96.9708 74.0311C95.096 70.1219 94.7749 63.3901 96.262 59.1591C97.7691 54.8705 100.08 51.7136 102.892 50.1018C103.526 49.7383 104.07 49.4259 104.1 49.4072C104.243 49.3211 103.365 47.4229 103.183 47.4229C102.618 47.4229 101.061 48.4703 99.5644 49.8553C97.0647 52.1698 94.9573 55.7267 93.7429 59.6807C93.187 61.4909 93.1137 68.972 93.6318 71.0047C94.5286 74.5223 96.11 77.3022 98.0738 78.8133C99.6451 80.0223 100.498 80.4033 102.527 80.8035C106.367 81.5607 111.482 79.3867 114.843 75.5693C116.296 73.9183 118.05 70.2613 118.492 67.9596C119.448 62.9838 118.551 56.9345 116.253 52.8586C114.471 49.6986 110.673 47.1672 106.855 46.5947L105.796 46.4359V47.6297ZM101.849 53.2791C101.688 53.8138 101.644 54.3326 101.75 54.432C101.856 54.5315 102.784 54.9485 103.811 55.3587C106.603 56.4738 114.01 59.3305 114.109 59.3305C114.318 59.3305 114.894 57.5976 114.732 57.4568C114.598 57.3405 104.817 53.3342 102.448 52.425C102.246 52.3473 102.04 52.6403 101.849 53.2791ZM73.2249 59.44C74.3806 59.6443 75.881 59.9217 76.5588 60.0559L77.7916 60.3004L77.0479 61.6249C73.0203 68.7997 72.0845 70.307 71.7299 70.1917C66.7567 68.5727 65.2951 68.0128 65.3539 67.7499C65.3908 67.5839 66.5465 65.518 67.9222 63.1587C69.6918 60.1232 70.5256 58.8983 70.7733 58.9688C70.9659 59.0237 72.0691 59.2357 73.2249 59.44ZM98.0199 60.4396C97.8249 60.9212 97.7348 61.3875 97.8198 61.476C97.9045 61.5642 99.3925 62.1816 101.126 62.8472C102.86 63.5131 106.417 64.8855 109.031 65.897C111.645 66.9084 113.877 67.7359 113.989 67.7359C114.174 67.7359 114.902 66.2659 114.902 65.8923C114.902 65.8087 114.087 65.4405 113.092 65.074C112.097 64.7076 108.467 63.3182 105.026 61.9859C101.585 60.6539 98.6802 59.564 98.5716 59.564C98.463 59.564 98.2148 59.9581 98.0199 60.4396ZM81.2142 61.3702C81.1605 61.7251 81.1152 61.4902 81.1133 60.8481C81.1117 60.2061 81.1556 59.9156 81.2109 60.2028C81.2663 60.49 81.2677 61.0153 81.2142 61.3702ZM80.8266 79.1766C80.697 80.6534 80.5324 82.1769 80.4605 82.5621C80.2469 83.7083 79.3853 86.222 78.8159 87.3597C78.1946 88.6018 76.2116 90.617 75.6106 90.617C75.2555 90.6173 72.6886 89.7319 70.7959 88.9567L70.2346 88.7268L70.7959 88.352C72.0066 87.5437 72.7276 86.7069 73.3708 85.3639C73.7397 84.5934 74.0418 83.7442 74.0418 83.4767C74.0421 83.2091 74.0972 82.935 74.1644 82.8677C74.2319 82.8003 74.951 82.9042 75.7628 83.0984C77.199 83.4421 77.2522 83.4379 77.7416 82.9485C78.0183 82.6718 78.4549 82.4454 78.7117 82.4454C78.9686 82.4454 79.1787 82.3664 79.1789 82.2702C79.1789 82.174 79.5457 77.9975 79.9935 72.9893C80.4416 67.9811 80.8339 63.5682 80.8654 63.183C80.8969 62.7977 80.9539 65.6346 80.9924 69.487C81.0307 73.3395 80.9562 77.6998 80.8266 79.1766ZM78.5926 64.1753C78.5338 64.5283 78.2109 67.9169 77.8756 71.7051C77.5401 75.4934 77.2443 78.6158 77.2181 78.6435C77.1334 78.7337 74.0421 71.7656 74.0421 71.4845C74.0421 71.3346 74.605 70.2461 75.2928 69.0654C75.9807 67.8846 76.9527 66.1578 77.4526 65.2276C78.4112 63.4438 78.7703 63.1122 78.5926 64.1753ZM97.9949 68.4522C97.7801 68.9892 97.6351 69.4548 97.6724 69.487C97.71 69.5193 99.054 70.0427 100.659 70.6502C102.264 71.258 104.891 72.2807 106.496 72.9232C108.101 73.5658 109.534 74.139 109.68 74.1971C109.829 74.2564 110.102 73.8406 110.304 73.2487L110.663 72.1945L108.405 71.3341C106.542 70.6246 104.526 69.8485 98.6468 67.5769C98.5032 67.5213 98.2099 67.9152 97.9949 68.4522ZM68.9724 71.5482L71.9578 72.5223L73.821 76.5849C74.8457 78.8194 75.64 80.6917 75.5863 80.7456C75.5324 80.7995 73.8182 80.407 71.7768 79.8738L68.0651 78.9039L66.7343 74.8887C66.0021 72.6804 65.4032 70.798 65.4032 70.7058C65.4032 70.4254 65.8657 70.5344 68.9724 71.5482ZM70.1896 81.7054C71.6435 82.0762 71.8319 82.1888 71.8954 82.7255C72.1128 84.5619 69.3708 87.3462 67.3411 87.3497C66.653 87.3508 64.4671 86.6478 64.472 86.4267C64.4737 86.356 64.8335 86.0657 65.2715 85.7821C66.2381 85.1561 67.3742 83.5563 67.7835 82.2448C67.9493 81.7129 68.191 81.2803 68.3201 81.2833C68.4494 81.2861 69.2907 81.4762 70.1896 81.7054ZM70.5398 91.2017L74.8593 92.858L74.9237 96.4072C74.9592 98.3593 74.9426 99.9566 74.887 99.9566C74.8315 99.9566 72.4492 98.8483 69.5933 97.4938C66.7371 96.1392 64.0483 94.8837 63.6177 94.7039L62.8349 94.3768V91.3439V88.3107L64.5276 88.928C65.4587 89.2675 68.1641 90.2906 70.5398 91.2017ZM66.8734 98.5849C69.0826 99.6283 71.4035 100.741 72.0311 101.057L73.1721 101.631L70.7831 102.776L68.3941 103.921L66.1671 102.592L63.9404 101.263L63.3887 101.952C63.0854 102.331 62.8367 102.767 62.836 102.921C62.8353 103.074 63.5316 103.617 64.3833 104.127L65.9318 105.054L64.7919 105.63C64.165 105.946 62.4615 106.748 61.0065 107.412L58.3609 108.619L57.1334 107.926C56.4582 107.545 55.2368 106.801 54.4194 106.272L52.9328 105.312L52.3982 106.195C52.1042 106.68 51.863 107.131 51.8623 107.196C51.8616 107.261 52.7533 107.839 53.8439 108.48C54.9345 109.122 55.8238 109.699 55.8206 109.763C55.8124 109.914 46.2146 114.433 45.9066 114.431C45.7787 114.43 44.3605 113.643 42.7553 112.681C41.1501 111.72 39.7683 110.933 39.6848 110.932C39.55 110.931 38.5526 112.465 38.5526 112.673C38.5526 112.718 39.6033 113.363 40.8874 114.105C42.1716 114.848 43.2223 115.521 43.2223 115.601C43.2223 115.681 41.2043 116.714 38.738 117.897L34.2535 120.049L28.9901 117.044C26.0951 115.391 22.9122 113.582 21.9169 113.022C20.9216 112.463 20.1074 111.937 20.1074 111.854C20.1074 111.705 21.4149 111.229 38.9028 105.023C43.7826 103.291 50.9797 100.719 54.8964 99.3085C58.8131 97.8975 62.2066 96.7308 62.4372 96.7154C62.6679 96.7002 64.6642 97.5415 66.8734 98.5849ZM23.694 116.626C26.9223 118.474 29.9838 120.218 30.4974 120.501C33.0134 121.888 33.0127 121.887 32.8729 122.929C32.6298 124.742 31.1437 125.157 28.2595 124.219C26.7509 123.728 21.1922 120.937 19.6005 119.872C17.8298 118.686 16.8994 116.428 17.3383 114.382C17.47 113.768 17.6334 113.265 17.7011 113.265C17.7691 113.265 20.4658 114.777 23.694 116.626Z" fill="black"/>
</svg>
