<svg width="305" height="157" viewBox="0 0 305 157" fill="none" xmlns="http://www.w3.org/2000/svg">
<path d="M161.28 111.032H157.248V119H156.024V102.2H157.248V109.928H161.304L167.328 102.2H168.696L162.264 110.384L169.128 119H167.688L161.28 111.032ZM179.461 112.544C181.301 112.864 182.221 113.896 182.221 115.64C182.221 116.728 181.821 117.56 181.021 118.136C180.237 118.712 179.053 119 177.469 119H172.045V106.472H177.325C178.717 106.472 179.805 106.752 180.589 107.312C181.389 107.856 181.789 108.64 181.789 109.664C181.789 110.4 181.581 111.016 181.165 111.512C180.765 111.992 180.197 112.336 179.461 112.544ZM173.221 112.184H177.253C178.325 112.184 179.149 111.984 179.725 111.584C180.301 111.168 180.589 110.576 180.589 109.808C180.589 109.024 180.301 108.44 179.725 108.056C179.165 107.656 178.341 107.456 177.253 107.456H173.221V112.184ZM177.445 118.016C179.829 118.016 181.021 117.208 181.021 115.592C181.021 114.744 180.749 114.12 180.205 113.72C179.661 113.32 178.805 113.12 177.637 113.12H173.221V118.016H177.445ZM190.635 106.376C192.187 106.376 193.379 106.776 194.211 107.576C195.043 108.36 195.459 109.52 195.459 111.056V119H194.307V116.768C193.907 117.504 193.323 118.08 192.555 118.496C191.787 118.896 190.867 119.096 189.795 119.096C188.403 119.096 187.299 118.768 186.483 118.112C185.683 117.456 185.283 116.592 185.283 115.52C185.283 114.48 185.651 113.64 186.387 113C187.139 112.344 188.331 112.016 189.963 112.016H194.259V111.008C194.259 109.84 193.939 108.952 193.299 108.344C192.675 107.736 191.755 107.432 190.539 107.432C189.707 107.432 188.907 107.576 188.139 107.864C187.387 108.152 186.747 108.536 186.219 109.016L185.619 108.152C186.243 107.592 186.995 107.16 187.875 106.856C188.755 106.536 189.675 106.376 190.635 106.376ZM189.963 118.112C191.003 118.112 191.883 117.872 192.603 117.392C193.339 116.912 193.891 116.216 194.259 115.304V112.952H189.987C188.755 112.952 187.859 113.176 187.299 113.624C186.755 114.072 186.483 114.688 186.483 115.472C186.483 116.288 186.787 116.936 187.395 117.416C188.003 117.88 188.859 118.112 189.963 118.112ZM206.646 106.376C207.814 106.376 208.87 106.648 209.814 107.192C210.758 107.736 211.494 108.488 212.022 109.448C212.566 110.408 212.838 111.504 212.838 112.736C212.838 113.968 212.566 115.072 212.022 116.048C211.494 117.008 210.758 117.76 209.814 118.304C208.87 118.832 207.814 119.096 206.646 119.096C205.542 119.096 204.542 118.84 203.646 118.328C202.75 117.8 202.054 117.072 201.558 116.144V123.656H200.358V106.472H201.51V109.424C202.006 108.464 202.702 107.72 203.598 107.192C204.51 106.648 205.526 106.376 206.646 106.376ZM206.574 118.016C207.534 118.016 208.398 117.792 209.166 117.344C209.934 116.896 210.534 116.272 210.966 115.472C211.414 114.672 211.638 113.76 211.638 112.736C211.638 111.712 211.414 110.8 210.966 110C210.534 109.2 209.934 108.576 209.166 108.128C208.398 107.68 207.534 107.456 206.574 107.456C205.614 107.456 204.75 107.68 203.982 108.128C203.23 108.576 202.63 109.2 202.182 110C201.75 110.8 201.534 111.712 201.534 112.736C201.534 113.76 201.75 114.672 202.182 115.472C202.63 116.272 203.23 116.896 203.982 117.344C204.75 117.792 205.614 118.016 206.574 118.016ZM224.648 107.552H219.752V119H218.552V107.552H213.656V106.472H224.648V107.552ZM227.217 106.472H228.417V117.152L237.345 106.472H238.401V119H237.201V108.32L228.273 119H227.217V106.472ZM249.888 106.376C251.056 106.376 252.112 106.648 253.056 107.192C254 107.736 254.736 108.488 255.264 109.448C255.808 110.408 256.08 111.504 256.08 112.736C256.08 113.968 255.808 115.072 255.264 116.048C254.736 117.008 254 117.76 253.056 118.304C252.112 118.832 251.056 119.096 249.888 119.096C248.784 119.096 247.784 118.84 246.888 118.328C245.992 117.8 245.296 117.072 244.8 116.144V123.656H243.6V106.472H244.752V109.424C245.248 108.464 245.944 107.72 246.84 107.192C247.752 106.648 248.768 106.376 249.888 106.376ZM249.816 118.016C250.776 118.016 251.64 117.792 252.408 117.344C253.176 116.896 253.776 116.272 254.208 115.472C254.656 114.672 254.88 113.76 254.88 112.736C254.88 111.712 254.656 110.8 254.208 110C253.776 109.2 253.176 108.576 252.408 108.128C251.64 107.68 250.776 107.456 249.816 107.456C248.856 107.456 247.992 107.68 247.224 108.128C246.472 108.576 245.872 109.2 245.424 110C244.992 110.8 244.776 111.712 244.776 112.736C244.776 113.76 244.992 114.672 245.424 115.472C245.872 116.272 246.472 116.896 247.224 117.344C247.992 117.792 248.856 118.016 249.816 118.016ZM259.983 106.472H261.183V117.152L270.111 106.472H271.167V119H269.967V108.32L261.039 119H259.983V106.472Z" fill="black"/>
<path d="M165.715 78H157.102V49.2617H153.793V43.5469C155.051 43.5469 156.108 43.0091 156.965 41.9336C157.84 40.8581 158.277 39.8099 158.277 38.7891H165.715V78ZM173.01 61.5664H180.913V70.8633C180.913 71.8294 181.432 72.3125 182.471 72.3125C183.51 72.3125 184.03 71.8294 184.03 70.8633V61.7852C184.03 60.7461 183.765 60.0443 183.237 59.6797C182.726 59.2969 181.76 59.1055 180.338 59.1055V54.6758C182.799 54.6758 184.03 53.9102 184.03 52.3789V45.4336C184.03 44.6497 183.51 44.2578 182.471 44.2578C181.396 44.2578 180.858 44.6497 180.858 45.4336V52.6523H173.229V45.3789C173.229 40.7487 176.437 38.4336 182.854 38.4336C185.424 38.4336 187.666 38.9896 189.58 40.1016C191.495 41.2135 192.452 42.9727 192.452 45.3789V50.7656C192.452 53.901 190.957 56.0065 187.967 57.082C191.03 57.9753 192.561 60.3997 192.561 64.3555V70.1797C192.561 75.6302 189.325 78.3555 182.854 78.3555C176.291 78.3555 173.01 75.8763 173.01 70.918V61.5664ZM219.462 38.7891L218.122 44.7227H208.36L207.977 52.7891C208.834 51.9323 210.329 51.5039 212.462 51.5039C216.983 51.5039 219.243 53.4453 219.243 57.3281V71.2461C219.243 73.5065 218.341 75.2565 216.536 76.4961C214.731 77.7357 212.361 78.3555 209.427 78.3555C202.864 78.3555 199.583 76.0039 199.583 71.3008V61.5391H207.977V71.6016C207.977 72.4583 208.46 72.8867 209.427 72.8867C210.374 72.8867 210.848 72.4583 210.848 71.6016V58.5586C210.848 57.6289 210.32 57.1641 209.263 57.1641C208.296 57.1641 207.795 57.9661 207.759 59.5703L199.692 59.3516L200.13 38.7891H219.462Z" fill="black"/>
<path d="M165.715 78V78.5H166.215V78H165.715ZM157.102 78H156.602V78.5H157.102V78ZM157.102 49.2617H157.602V48.7617H157.102V49.2617ZM153.793 49.2617H153.293V49.7617H153.793V49.2617ZM153.793 43.5469V43.0469H153.293V43.5469H153.793ZM156.965 41.9336L156.577 41.618L156.574 41.6221L156.965 41.9336ZM158.277 38.7891V38.2891H157.777V38.7891H158.277ZM165.715 38.7891H166.215V38.2891H165.715V38.7891ZM165.715 77.5H157.102V78.5H165.715V77.5ZM157.602 78V49.2617H156.602V78H157.602ZM157.102 48.7617H153.793V49.7617H157.102V48.7617ZM154.293 49.2617V43.5469H153.293V49.2617H154.293ZM153.793 44.0469C155.219 44.0469 156.414 43.427 157.356 42.2451L156.574 41.6221C155.802 42.5912 154.883 43.0469 153.793 43.0469V44.0469ZM157.353 42.2491C158.274 41.1163 158.777 39.9601 158.777 38.7891H157.777C157.777 39.6597 157.405 40.5999 156.577 41.618L157.353 42.2491ZM158.277 39.2891H165.715V38.2891H158.277V39.2891ZM165.215 38.7891V78H166.215V38.7891H165.215ZM173.01 61.5664V61.0664H172.51V61.5664H173.01ZM180.913 61.5664H181.413V61.0664H180.913V61.5664ZM183.237 59.6797L182.937 60.0797L182.945 60.0857L182.953 60.0913L183.237 59.6797ZM180.338 59.1055H179.838V59.6055H180.338V59.1055ZM180.338 54.6758V54.1758H179.838V54.6758H180.338ZM180.858 52.6523V53.1523H181.358V52.6523H180.858ZM173.229 52.6523H172.729V53.1523H173.229V52.6523ZM187.967 57.082L187.798 56.6116L186.352 57.1318L187.827 57.562L187.967 57.082ZM173.01 62.0664H180.913V61.0664H173.01V62.0664ZM180.413 61.5664V70.8633H181.413V61.5664H180.413ZM180.413 70.8633C180.413 71.4331 180.567 71.9498 180.962 72.3164C181.349 72.6766 181.883 72.8125 182.471 72.8125V71.8125C182.02 71.8125 181.775 71.7069 181.643 71.584C181.517 71.4675 181.413 71.2596 181.413 70.8633H180.413ZM182.471 72.8125C183.059 72.8125 183.593 72.6766 183.981 72.3164C184.375 71.9498 184.53 71.4331 184.53 70.8633H183.53C183.53 71.2596 183.425 71.4675 183.3 71.584C183.167 71.7069 182.922 71.8125 182.471 71.8125V72.8125ZM184.53 70.8633V61.7852H183.53V70.8633H184.53ZM184.53 61.7852C184.53 60.6852 184.252 59.7724 183.521 59.2681L182.953 60.0913C183.279 60.3161 183.53 60.807 183.53 61.7852H184.53ZM183.537 59.2797C183.198 59.0255 182.747 58.8617 182.226 58.7586C181.701 58.6544 181.069 58.6055 180.338 58.6055V59.6055C181.03 59.6055 181.592 59.6522 182.032 59.7395C182.478 59.8278 182.765 59.9511 182.937 60.0797L183.537 59.2797ZM180.838 59.1055V54.6758H179.838V59.1055H180.838ZM180.338 55.1758C181.604 55.1758 182.639 54.9817 183.371 54.5261C184.143 54.0459 184.53 53.3055 184.53 52.3789H183.53C183.53 52.9836 183.301 53.3916 182.843 53.677C182.345 53.987 181.533 54.1758 180.338 54.1758V55.1758ZM184.53 52.3789V45.4336H183.53V52.3789H184.53ZM184.53 45.4336C184.53 44.9208 184.352 44.4628 183.941 44.1526C183.557 43.8624 183.039 43.7578 182.471 43.7578V44.7578C182.942 44.7578 183.204 44.8492 183.339 44.9509C183.447 45.0326 183.53 45.1626 183.53 45.4336H184.53ZM182.471 43.7578C181.887 43.7578 181.359 43.8615 180.967 44.1477C180.545 44.4553 180.358 44.9142 180.358 45.4336H181.358C181.358 45.1691 181.44 45.0401 181.556 44.9558C181.701 44.8501 181.979 44.7578 182.471 44.7578V43.7578ZM180.358 45.4336V52.6523H181.358V45.4336H180.358ZM180.858 52.1523H173.229V53.1523H180.858V52.1523ZM173.729 52.6523V45.3789H172.729V52.6523H173.729ZM173.729 45.3789C173.729 43.1932 174.477 41.6221 175.928 40.5754C177.408 39.5069 179.691 38.9336 182.854 38.9336V37.9336C179.6 37.9336 177.07 38.5178 175.343 39.7645C173.585 41.0329 172.729 42.9344 172.729 45.3789H173.729ZM182.854 38.9336C185.35 38.9336 187.503 39.4729 189.329 40.5339L189.832 39.6692C187.83 38.5062 185.498 37.9336 182.854 37.9336V38.9336ZM189.329 40.5339C191.074 41.5473 191.952 43.132 191.952 45.3789H192.952C192.952 42.8133 191.915 40.8798 189.832 39.6692L189.329 40.5339ZM191.952 45.3789V50.7656H192.952V45.3789H191.952ZM191.952 50.7656C191.952 52.2522 191.598 53.4554 190.923 54.4068C190.247 55.3588 189.219 56.1003 187.798 56.6116L188.136 57.5525C189.705 56.9882 190.919 56.1393 191.738 54.9857C192.557 53.8317 192.952 52.4144 192.952 50.7656H191.952ZM187.827 57.562C189.256 57.9786 190.297 58.74 190.99 59.8373C191.689 60.9447 192.061 62.4376 192.061 64.3555H193.061C193.061 62.3176 192.667 60.6204 191.835 59.3033C190.997 57.9762 189.741 57.0787 188.107 56.602L187.827 57.562ZM192.061 64.3555V70.1797H193.061V64.3555H192.061ZM192.061 70.1797C192.061 72.8032 191.286 74.6874 189.812 75.9291C188.321 77.1846 186.031 77.8555 182.854 77.8555V78.8555C186.148 78.8555 188.711 78.1637 190.456 76.694C192.218 75.2103 193.061 73.0067 193.061 70.1797H192.061ZM182.854 77.8555C179.621 77.8555 177.288 77.2424 175.773 76.0972C174.283 74.9719 173.51 73.2765 173.51 70.918H172.51C172.51 73.5178 173.378 75.5411 175.17 76.895C176.935 78.229 179.524 78.8555 182.854 78.8555V77.8555ZM173.51 70.918V61.5664H172.51V70.918H173.51ZM219.462 38.7891L219.949 38.8992L220.087 38.2891H219.462V38.7891ZM218.122 44.7227V45.2227H218.522L218.61 44.8328L218.122 44.7227ZM208.36 44.7227V44.2227H207.883L207.861 44.699L208.36 44.7227ZM207.977 52.7891L207.478 52.7654L207.417 54.0569L208.331 53.1426L207.977 52.7891ZM199.583 61.5391V61.0391H199.083V61.5391H199.583ZM207.977 61.5391H208.477V61.0391H207.977V61.5391ZM207.759 59.5703L207.745 60.0701L208.247 60.0837L208.258 59.5817L207.759 59.5703ZM199.692 59.3516L199.192 59.3409L199.182 59.8379L199.679 59.8514L199.692 59.3516ZM200.13 38.7891V38.2891H199.64L199.63 38.7784L200.13 38.7891ZM218.974 38.6789L217.634 44.6125L218.61 44.8328L219.949 38.8992L218.974 38.6789ZM218.122 44.2227H208.36V45.2227H218.122V44.2227ZM207.861 44.699L207.478 52.7654L208.477 52.8128L208.86 44.7464L207.861 44.699ZM208.331 53.1426C209.044 52.4295 210.368 52.0039 212.462 52.0039V51.0039C210.289 51.0039 208.624 51.4351 207.624 52.4355L208.331 53.1426ZM212.462 52.0039C214.662 52.0039 216.219 52.478 217.222 53.3393C218.21 54.188 218.743 55.4853 218.743 57.3281H219.743C219.743 55.2881 219.146 53.6733 217.873 52.5807C216.616 51.5005 214.782 51.0039 212.462 51.0039V52.0039ZM218.743 57.3281V71.2461H219.743V57.3281H218.743ZM218.743 71.2461C218.743 73.3482 217.917 74.9412 216.253 76.084L216.819 76.9082C218.765 75.5718 219.743 73.6649 219.743 71.2461H218.743ZM216.253 76.084C214.556 77.2498 212.294 77.8555 209.427 77.8555V78.8555C212.429 78.8555 214.907 78.2216 216.819 76.9082L216.253 76.084ZM209.427 77.8555C206.19 77.8555 203.852 77.2729 202.335 76.1854C200.848 75.1199 200.083 73.5216 200.083 71.3008H199.083C199.083 73.7831 199.958 75.7121 201.752 76.9982C203.516 78.2623 206.101 78.8555 209.427 78.8555V77.8555ZM200.083 71.3008V61.5391H199.083V71.3008H200.083ZM199.583 62.0391H207.977V61.0391H199.583V62.0391ZM207.477 61.5391V71.6016H208.477V61.5391H207.477ZM207.477 71.6016C207.477 72.1236 207.627 72.602 208.008 72.9395C208.377 73.2669 208.88 73.3867 209.427 73.3867V72.3867C209.007 72.3867 208.785 72.2923 208.671 72.1913C208.569 72.1005 208.477 71.9363 208.477 71.6016H207.477ZM209.427 73.3867C209.966 73.3867 210.464 73.266 210.828 72.9364C211.202 72.5981 211.348 72.1208 211.348 71.6016H210.348C210.348 71.9391 210.257 72.1044 210.158 72.1945C210.048 72.2933 209.835 72.3867 209.427 72.3867V73.3867ZM211.348 71.6016V58.5586H210.348V71.6016H211.348ZM211.348 58.5586C211.348 57.9988 211.186 57.4926 210.782 57.1372C210.39 56.7926 209.854 56.6641 209.263 56.6641V57.6641C209.729 57.6641 209.985 57.768 210.122 57.8882C210.246 57.9976 210.348 58.1887 210.348 58.5586H211.348ZM209.263 56.6641C208.612 56.6641 208.082 56.9496 207.738 57.5006C207.417 58.014 207.278 58.7222 207.259 59.559L208.258 59.5817C208.276 58.8142 208.405 58.3194 208.586 58.0306C208.743 57.7796 208.947 57.6641 209.263 57.6641V56.6641ZM207.772 59.0705L199.706 58.8517L199.679 59.8514L207.745 60.0701L207.772 59.0705ZM200.192 59.3622L200.63 38.7997L199.63 38.7784L199.192 59.3409L200.192 59.3622ZM200.13 39.2891H219.462V38.2891H200.13V39.2891Z" fill="black"/>
<rect x="0.5" y="0.5" width="304" height="156" rx="17.5" stroke="#8D3500"/>
<path fill-rule="evenodd" clip-rule="evenodd" d="M16.5063 32.2326C15.7217 35.1112 14.1158 40.6047 12.939 44.4419C10.1605 53.4977 10.1619 53.5116 14.2951 53.5116H17.8228V92.5814V131.651H67.9173H118.012V92.5814V53.5116H121.54C125.673 53.5116 125.674 53.4977 122.896 44.4419C121.719 40.6047 120.113 35.1112 119.328 32.2326L117.903 27H67.9173H17.9315L16.5063 32.2326ZM118.644 36.0251C119.877 40.2209 121.26 45.5009 121.717 47.76L122.547 51.8665L102.08 52.034L81.6121 52.2028L74.8458 43.0898C71.1233 38.0777 68.0062 33.9767 67.9173 33.9767C67.8284 33.9767 64.7112 38.0777 60.9887 43.0898L54.2224 52.2028L33.7543 52.034L13.2875 51.8665L14.1173 47.76C14.5745 45.5009 15.9573 40.2209 17.1907 36.0251L19.4343 28.3953H67.9173H116.4L118.644 36.0251ZM76.3501 48.2791L78.6601 52.1163H67.9145C56.0682 52.1163 56.3292 52.673 63.4836 42.6586L67.748 36.6879L70.8947 40.5656C72.6248 42.6977 75.0801 46.1693 76.3501 48.2791ZM116.601 91.8837V130.256H102.553H88.5068L87.5388 125.159C87.0068 122.354 86.9179 112.621 87.3426 103.531L88.1117 87H67.9173H47.7229L48.4919 103.531C48.9167 112.621 48.8278 122.354 48.2958 125.159L47.3278 130.256H33.2816H19.2339V91.8837V53.5116H67.9173H116.601V91.8837ZM33.5906 60.9265C30.9899 63.6642 30.5228 65.7907 30.5228 74.88V85.6046H37.5784H44.6339V74.6847C44.6339 65.0749 44.2417 63.4019 41.3686 60.7312C37.3314 56.9819 37.3399 56.9819 33.5906 60.9265ZM63.1802 61.913C60.5202 65.4698 60.0941 67.5935 60.4455 75.5177L60.8617 84.907H67.9173H74.9728L75.3891 75.5177C75.7405 67.5935 75.3143 65.4698 72.6544 61.913C70.9215 59.594 68.7893 57.6977 67.9173 57.6977C67.0452 57.6977 64.913 59.594 63.1802 61.913ZM94.2684 60.9265C91.6677 63.6642 91.2006 65.7907 91.2006 74.88V85.6046H98.2562H105.312V74.6847C105.312 65.0749 104.919 63.4019 102.046 60.7312C98.0092 56.9819 98.0177 56.9819 94.2684 60.9265ZM42.9279 74.3902L42.5173 83.5116L37.2256 83.9442L31.9339 84.3781V75.1367C31.9339 68.5186 32.6353 64.9646 34.4034 62.6121L36.8728 59.3274L40.1057 62.2981C42.942 64.9033 43.2878 66.3865 42.9279 74.3902ZM72.8562 73.9605V84.2093H67.9173H62.9784V74.2033C62.9784 66.8316 63.5965 63.5219 65.3237 61.6339C67.5165 59.2381 67.8397 59.2228 70.2626 61.3912C72.3312 63.2414 72.8562 65.7851 72.8562 73.9605ZM103.901 75.0949V84.3781L98.609 83.9442L93.3173 83.5116L92.8925 74.6079C92.5299 67.0256 92.9264 65.2214 95.5553 62.453L98.6428 59.2033L101.272 62.5074C103.237 64.9786 103.901 68.153 103.901 75.0949ZM86.9673 91.186C86.9673 93.8386 86.0261 93.9767 67.9173 93.9767C49.8085 93.9767 48.8673 93.8386 48.8673 91.186C48.8673 88.5335 49.8085 88.3953 67.9173 88.3953C86.0261 88.3953 86.9673 88.5335 86.9673 91.186ZM84.1451 110.721V126.07H80.6173C77.1163 126.07 77.0895 125.976 77.0895 113.512V100.953H67.9173H58.7451V113.512C58.7451 125.976 58.7183 126.07 55.2173 126.07H51.6895V110.721V95.3721H67.9173H84.1451V110.721ZM30.5228 109.326V120.488H37.5784H44.6339V109.326V98.1628H37.5784H30.5228V109.326ZM91.2006 109.326V120.488H98.2562H105.312V109.326V98.1628H98.2562H91.2006V109.326ZM43.2228 109.326V119.093H37.5784H31.9339V109.326V99.5581H37.5784H43.2228V109.326ZM103.901 109.326V119.093H98.2562H92.6117V109.326V99.5581H98.2562H103.901V109.326ZM75.3821 114.558L75.7927 126.07H67.9737H60.1562V115.14C60.1562 109.127 60.6091 103.762 61.1623 103.215C61.7155 102.668 65.0485 102.406 68.5706 102.633L74.9728 103.047L75.3821 114.558ZM86.9673 128.86C86.9673 129.721 79.6761 130.256 67.9173 130.256C56.1585 130.256 48.8673 129.721 48.8673 128.86C48.8673 128 56.1585 127.465 67.9173 127.465C79.6761 127.465 86.9673 128 86.9673 128.86Z" fill="black"/>
</svg>
