<svg width="305" height="157" viewBox="0 0 305 157" fill="none" xmlns="http://www.w3.org/2000/svg">
<path d="M168.848 110.2V127H167.624V111.304H156.248V127H155.024V110.2H168.848ZM179.459 127.096C178.275 127.096 177.203 126.824 176.243 126.28C175.299 125.736 174.555 124.984 174.011 124.024C173.467 123.048 173.195 121.952 173.195 120.736C173.195 119.52 173.467 118.432 174.011 117.472C174.555 116.496 175.299 115.736 176.243 115.192C177.203 114.648 178.275 114.376 179.459 114.376C180.643 114.376 181.707 114.648 182.651 115.192C183.611 115.736 184.363 116.496 184.907 117.472C185.451 118.432 185.723 119.52 185.723 120.736C185.723 121.952 185.451 123.048 184.907 124.024C184.363 124.984 183.611 125.736 182.651 126.28C181.707 126.824 180.643 127.096 179.459 127.096ZM179.459 126.016C180.419 126.016 181.275 125.792 182.027 125.344C182.795 124.896 183.395 124.272 183.827 123.472C184.275 122.672 184.499 121.76 184.499 120.736C184.499 119.712 184.275 118.8 183.827 118C183.395 117.2 182.795 116.576 182.027 116.128C181.275 115.68 180.419 115.456 179.459 115.456C178.499 115.456 177.635 115.68 176.867 116.128C176.115 116.576 175.515 117.2 175.067 118C174.635 118.8 174.419 119.712 174.419 120.736C174.419 121.76 174.635 122.672 175.067 123.472C175.515 124.272 176.115 124.896 176.867 125.344C177.635 125.792 178.499 126.016 179.459 126.016ZM197.047 120.544C198.887 120.864 199.807 121.896 199.807 123.64C199.807 124.728 199.407 125.56 198.607 126.136C197.823 126.712 196.639 127 195.055 127H189.631V114.472H194.911C196.303 114.472 197.391 114.752 198.175 115.312C198.975 115.856 199.375 116.64 199.375 117.664C199.375 118.4 199.167 119.016 198.751 119.512C198.351 119.992 197.783 120.336 197.047 120.544ZM190.807 120.184H194.839C195.911 120.184 196.735 119.984 197.311 119.584C197.887 119.168 198.175 118.576 198.175 117.808C198.175 117.024 197.887 116.44 197.311 116.056C196.751 115.656 195.927 115.456 194.839 115.456H190.807V120.184ZM195.031 126.016C197.415 126.016 198.607 125.208 198.607 123.592C198.607 122.744 198.335 122.12 197.791 121.72C197.247 121.32 196.391 121.12 195.223 121.12H190.807V126.016H195.031ZM214.749 121.024H203.973C204.005 122 204.253 122.872 204.717 123.64C205.181 124.392 205.805 124.976 206.589 125.392C207.389 125.808 208.285 126.016 209.277 126.016C210.093 126.016 210.845 125.872 211.533 125.584C212.237 125.28 212.821 124.84 213.285 124.264L213.981 125.056C213.437 125.712 212.749 126.216 211.917 126.568C211.101 126.92 210.213 127.096 209.253 127.096C208.005 127.096 206.893 126.824 205.917 126.28C204.941 125.736 204.173 124.984 203.613 124.024C203.069 123.064 202.797 121.968 202.797 120.736C202.797 119.52 203.053 118.432 203.565 117.472C204.093 116.496 204.813 115.736 205.725 115.192C206.637 114.648 207.661 114.376 208.797 114.376C209.933 114.376 210.949 114.648 211.845 115.192C212.757 115.72 213.469 116.464 213.981 117.424C214.509 118.384 214.773 119.472 214.773 120.688L214.749 121.024ZM208.797 115.432C207.917 115.432 207.125 115.632 206.421 116.032C205.717 116.416 205.149 116.968 204.717 117.688C204.301 118.392 204.061 119.192 203.997 120.088H213.597C213.549 119.192 213.309 118.392 212.877 117.688C212.445 116.984 211.877 116.432 211.173 116.032C210.469 115.632 209.677 115.432 208.797 115.432ZM225.006 114.376C226.174 114.376 227.23 114.648 228.174 115.192C229.118 115.736 229.854 116.488 230.382 117.448C230.926 118.408 231.198 119.504 231.198 120.736C231.198 121.968 230.926 123.072 230.382 124.048C229.854 125.008 229.118 125.76 228.174 126.304C227.23 126.832 226.174 127.096 225.006 127.096C223.902 127.096 222.902 126.84 222.006 126.328C221.11 125.8 220.414 125.072 219.918 124.144V131.656H218.718V114.472H219.87V117.424C220.366 116.464 221.062 115.72 221.958 115.192C222.87 114.648 223.886 114.376 225.006 114.376ZM224.934 126.016C225.894 126.016 226.758 125.792 227.526 125.344C228.294 124.896 228.894 124.272 229.326 123.472C229.774 122.672 229.998 121.76 229.998 120.736C229.998 119.712 229.774 118.8 229.326 118C228.894 117.2 228.294 116.576 227.526 116.128C226.758 115.68 225.894 115.456 224.934 115.456C223.974 115.456 223.11 115.68 222.342 116.128C221.59 116.576 220.99 117.2 220.542 118C220.11 118.8 219.894 119.712 219.894 120.736C219.894 121.76 220.11 122.672 220.542 123.472C220.99 124.272 221.59 124.896 222.342 125.344C223.11 125.792 223.974 126.016 224.934 126.016ZM242.503 127L238.207 121.408L233.911 127H232.543L237.511 120.544L232.807 114.472H234.175L238.207 119.68L242.239 114.472H243.583L238.879 120.544L243.919 127H242.503ZM246.959 114.472H248.159V127H246.959V114.472ZM247.559 111.424C247.287 111.424 247.055 111.336 246.863 111.16C246.671 110.968 246.575 110.736 246.575 110.464C246.575 110.192 246.671 109.96 246.863 109.768C247.055 109.576 247.287 109.48 247.559 109.48C247.831 109.48 248.063 109.576 248.255 109.768C248.447 109.944 248.543 110.168 248.543 110.44C248.543 110.712 248.447 110.944 248.255 111.136C248.063 111.328 247.831 111.424 247.559 111.424ZM260.727 120.544C262.567 120.864 263.487 121.896 263.487 123.64C263.487 124.728 263.087 125.56 262.287 126.136C261.503 126.712 260.319 127 258.735 127H253.311V114.472H258.591C259.983 114.472 261.071 114.752 261.855 115.312C262.655 115.856 263.055 116.64 263.055 117.664C263.055 118.4 262.847 119.016 262.431 119.512C262.031 119.992 261.463 120.336 260.727 120.544ZM254.487 120.184H258.519C259.591 120.184 260.415 119.984 260.991 119.584C261.567 119.168 261.855 118.576 261.855 117.808C261.855 117.024 261.567 116.44 260.991 116.056C260.431 115.656 259.607 115.456 258.519 115.456H254.487V120.184ZM258.711 126.016C261.095 126.016 262.287 125.208 262.287 123.592C262.287 122.744 262.015 122.12 261.471 121.72C260.927 121.32 260.071 121.12 258.903 121.12H254.487V126.016H258.711Z" fill="black"/>
<rect x="0.5" y="0.5" width="304" height="156" rx="17.5" stroke="#8D3500"/>
<path fill-rule="evenodd" clip-rule="evenodd" d="M96.6726 30.1395C96.6331 32.9428 96.4751 33.0181 95.1909 30.8372C92.38 26.0651 84.8475 29.5772 86.3066 34.98C87.0982 37.906 87.3649 37.9647 91.1538 36.0265C96.1985 33.4479 106.694 33.3851 112.635 35.8981C115.133 36.9544 118.882 39.6237 120.966 41.8284C133.184 54.7479 128.644 75.3349 111.97 82.6298C107.177 84.727 106.923 85.1191 108.771 87.5833C110.472 89.8507 111.321 90.0153 114.33 88.6605C116.517 87.674 117.882 85.9102 117.882 84.0684C117.882 81.5205 118.208 81.3446 120.076 82.8767C121.908 84.3809 122.76 84.1912 125.25 81.7284C127.741 79.2656 127.933 78.4228 126.412 76.6116C124.848 74.7474 125.09 74.4419 128.128 74.4419C130.601 74.4419 131.919 73.4986 132.515 71.3023C133.765 66.6851 133.621 66.0698 131.287 66.0698C130.123 66.0698 129.171 65.4419 129.171 64.6744C129.171 63.907 130.441 63.2791 131.993 63.2791C134.188 63.2791 134.815 62.3484 134.815 59.093C134.815 55.8377 134.188 54.907 131.993 54.907C130.441 54.907 129.171 54.2791 129.171 53.5116C129.171 52.7442 130.196 52.1163 131.452 52.1163C133.129 52.1163 133.508 51.2847 132.882 48.9767C132.415 47.2493 132.022 45.367 132.012 44.7907C132.001 44.2144 130.328 43.7442 128.293 43.7442C125.105 43.7442 124.844 43.4428 126.412 41.5744C127.933 39.7633 127.741 38.9205 125.25 36.4577C122.76 33.9949 121.908 33.8051 120.076 35.3093C118.208 36.8414 117.882 36.6656 117.882 34.1177C117.882 32.2758 116.517 30.5121 114.33 29.5256C111.323 28.1721 110.465 28.3367 108.731 30.6028C106.745 33.1981 106.682 33.1842 106.638 30.1395C106.6 27.4898 105.822 27 101.654 27C97.4854 27 96.7079 27.4898 96.6726 30.1395ZM105.182 29.7907C105.182 30.5581 103.912 31.186 102.359 31.186C100.807 31.186 99.5372 30.5581 99.5372 29.7907C99.5372 29.0233 100.807 28.3953 102.359 28.3953C103.912 28.3953 105.182 29.0233 105.182 29.7907ZM91.8509 32.9023C90.5301 33.6335 89.0371 33.8274 88.5361 33.3307C87.2944 32.1028 91.3132 29.774 92.9487 30.773C93.667 31.2126 93.1731 32.1712 91.8509 32.9023ZM116.471 32.8465C116.471 34.6995 111.891 33.6516 111.216 31.6451C110.866 30.6056 111.721 30.2833 113.568 30.7605C115.164 31.1735 116.471 32.1126 116.471 32.8465ZM46.6205 43.8935C34.9788 50.0595 24.8188 55.7777 24.0427 56.6009C23.2666 57.4242 33.1571 52.6926 46.0222 46.0842C66.6357 35.4963 69.7345 34.2851 72.1278 35.8814C78.2802 39.9823 113.647 57.7367 113.624 56.7126C113.603 55.7791 69.7416 32.4837 68.2825 32.6316C68.0101 32.6595 58.2622 37.7274 46.6205 43.8935ZM93.1872 37.4149C88.1834 39.6809 90.5611 40.2112 96.207 38.0888C110.585 32.6833 127.752 49.1526 123.608 64.3744C122.06 70.0563 115.131 77.6163 109.415 79.8586C107.475 80.6191 106.84 81.2791 108.004 81.3251C111.598 81.466 119.176 76.0939 122.123 71.3149C129.808 58.8586 125.159 44.0874 111.643 38.0177C104.846 34.966 99.0165 34.7749 93.1872 37.4149ZM124.673 39.4716C125.026 40.5181 124.497 41.0414 123.439 40.6926C122.42 40.3563 121.308 39.2567 120.969 38.2507C120.616 37.2042 121.146 36.6809 122.204 37.0298C123.221 37.3647 124.333 38.4642 124.673 39.4716ZM131.012 48.0098C131.495 49.8363 131.169 50.6819 130.117 50.3358C128.088 49.6674 127.028 45.1395 128.902 45.1395C129.645 45.1395 130.594 46.4316 131.012 48.0098ZM133.404 59.093C133.404 60.6279 132.769 61.8837 131.993 61.8837C131.217 61.8837 130.582 60.6279 130.582 59.093C130.582 57.5581 131.217 56.3023 131.993 56.3023C132.769 56.3023 133.404 57.5581 133.404 59.093ZM34.9534 95.0233L34.6261 130.256H68.4927H102.359L102.032 95.0233L101.706 59.7907L101.302 94.3256L100.899 128.86H68.4927H36.0866L35.683 94.3256L35.2794 59.7907L34.9534 95.0233ZM48.2673 67.0005C47.7494 67.5112 47.3261 76.6158 47.3261 87.233V106.535H68.4927H89.6594V86.3023V66.0698H69.4339C58.3087 66.0698 48.7837 66.4884 48.2673 67.0005ZM87.9364 86.6512L88.3301 105.14H69.2392H50.1483V86.2619V67.3842L68.8455 67.7735L87.5427 68.1628L87.9364 86.6512ZM130.991 70.2558C130.584 71.7907 129.691 73.0465 129.005 73.0465C127.548 73.0465 127.332 69.7493 128.701 68.3958C130.551 66.5665 131.716 67.5126 130.991 70.2558ZM68.7651 76.8837L68.4927 85.6046L60.3788 85.8321L52.265 86.0595L60.0261 86.8786L67.7872 87.6977L68.624 94.6744L69.4608 101.651L69.6823 94.3981L69.9038 87.1465L77.3122 86.633L84.7205 86.1209L77.3799 85.8628L70.0379 85.6046L69.537 76.8837L69.036 68.1628L68.7651 76.8837ZM124.937 78.5456C124.937 80.1921 122.186 81.953 121.174 80.954C120.163 79.9535 121.944 77.2326 123.609 77.2326C124.34 77.2326 124.937 77.8228 124.937 78.5456ZM116.471 85.4414C116.471 86.1195 115.201 87.0028 113.648 87.4047C110.874 88.1219 109.917 86.9693 111.767 85.14C113.136 83.7865 116.471 84 116.471 85.4414Z" fill="black"/>
<path d="M164.544 75V45.6H155.976V42.016C159.112 42.016 161.408 41.5307 162.864 40.56C164.357 39.5893 165.253 37.6293 165.552 34.68H169.024V75H164.544ZM191.618 55.176C191.618 57.64 191.674 59.712 191.786 61.392C191.936 63.072 192.197 64.7893 192.57 66.544C192.981 68.2613 193.634 69.568 194.53 70.464C195.426 71.36 196.565 71.808 197.946 71.808C199.066 71.808 200.018 71.4907 200.802 70.856C201.586 70.184 202.202 69.3627 202.65 68.392C203.098 67.4213 203.453 66.1707 203.714 64.64C203.976 63.072 204.144 61.5787 204.218 60.16C204.293 58.7413 204.33 57.08 204.33 55.176C204.33 44.2 202.202 38.712 197.946 38.712C196.565 38.712 195.426 39.216 194.53 40.224C193.634 41.1947 192.981 42.576 192.57 44.368C192.197 46.16 191.936 47.8773 191.786 49.52C191.674 51.1253 191.618 53.0107 191.618 55.176ZM197.946 75.84C196.528 75.84 195.24 75.5973 194.082 75.112C192.925 74.664 191.973 74.0853 191.226 73.376C190.48 72.6667 189.826 71.7333 189.266 70.576C188.744 69.4187 188.333 68.2987 188.034 67.216C187.736 66.096 187.493 64.7707 187.306 63.24C187.157 61.7093 187.064 60.384 187.026 59.264C186.989 58.1067 186.97 56.744 186.97 55.176C186.97 53.5707 187.008 52.1333 187.082 50.864C187.157 49.5947 187.306 48.1013 187.53 46.384C187.754 44.6667 188.109 43.1733 188.594 41.904C189.117 40.6347 189.752 39.4213 190.498 38.264C191.282 37.1067 192.309 36.2293 193.578 35.632C194.848 34.9973 196.304 34.68 197.946 34.68C199.589 34.68 201.045 34.9973 202.314 35.632C203.584 36.2293 204.61 37.1067 205.394 38.264C206.178 39.4213 206.813 40.6347 207.298 41.904C207.821 43.136 208.194 44.6107 208.418 46.328C208.642 48.0453 208.792 49.5573 208.866 50.864C208.941 52.1333 208.978 53.5707 208.978 55.176C208.978 57.0427 208.941 58.6293 208.866 59.936C208.829 61.2427 208.698 62.792 208.474 64.584C208.25 66.3387 207.896 67.8133 207.41 69.008C206.925 70.1653 206.29 71.3227 205.506 72.48C204.722 73.6 203.677 74.44 202.37 75C201.101 75.56 199.626 75.84 197.946 75.84Z" fill="black"/>
<path d="M164.544 75H163.544V76H164.544V75ZM164.544 45.6H165.544V44.6H164.544V45.6ZM155.976 45.6H154.976V46.6H155.976V45.6ZM155.976 42.016V41.016H154.976V42.016H155.976ZM162.864 40.56L162.319 39.7215L162.309 39.7279L162.864 40.56ZM165.552 34.68V33.68H164.648L164.557 34.5792L165.552 34.68ZM169.024 34.68H170.024V33.68H169.024V34.68ZM169.024 75V76H170.024V75H169.024ZM165.544 75V45.6H163.544V75H165.544ZM164.544 44.6H155.976V46.6H164.544V44.6ZM156.976 45.6V42.016H154.976V45.6H156.976ZM155.976 43.016C159.173 43.016 161.713 42.529 163.419 41.392L162.309 39.7279C161.103 40.5323 159.051 41.016 155.976 41.016V43.016ZM163.409 41.3984C165.285 40.179 166.238 37.8353 166.547 34.7807L164.557 34.5792C164.269 37.4234 163.43 38.9997 162.319 39.7216L163.409 41.3984ZM165.552 35.68H169.024V33.68H165.552V35.68ZM168.024 34.68V75H170.024V34.68H168.024ZM169.024 74H164.544V76H169.024V74ZM191.786 61.392L190.788 61.4585L190.789 61.4695L190.79 61.4805L191.786 61.392ZM192.57 66.544L191.592 66.7521L191.595 66.7644L191.598 66.7766L192.57 66.544ZM194.53 70.464L193.823 71.1711L194.53 70.464ZM200.802 70.856L201.431 71.6332L201.442 71.6244L201.453 71.6153L200.802 70.856ZM202.65 68.392L201.742 67.9729L202.65 68.392ZM203.714 64.64L204.7 64.8083L204.701 64.8044L203.714 64.64ZM204.218 60.16L205.217 60.2126L204.218 60.16ZM194.53 40.224L195.265 40.9023L195.271 40.8954L195.278 40.8884L194.53 40.224ZM192.57 44.368L191.596 44.1446L191.593 44.1543L191.591 44.164L192.57 44.368ZM191.786 49.52L190.79 49.4295L190.789 49.4399L190.789 49.4504L191.786 49.52ZM194.082 75.112L194.469 74.1898L194.456 74.1844L194.443 74.1794L194.082 75.112ZM191.226 73.376L191.915 72.651L191.226 73.376ZM189.266 70.576L188.355 70.9876L188.36 70.9996L188.366 71.0116L189.266 70.576ZM188.034 67.216L187.068 67.4737L187.07 67.4819L188.034 67.216ZM187.306 63.24L186.311 63.3371L186.312 63.3491L186.314 63.3611L187.306 63.24ZM187.026 59.264L186.027 59.2962L186.027 59.2973L187.026 59.264ZM187.082 50.864L188.081 50.9227L187.082 50.864ZM188.594 41.904L187.67 41.5232L187.665 41.535L187.66 41.5469L188.594 41.904ZM190.498 38.264L189.67 37.7032L189.664 37.7124L189.658 37.7219L190.498 38.264ZM193.578 35.632L194.004 36.5368L194.015 36.5317L194.025 36.5264L193.578 35.632ZM202.314 35.632L201.867 36.5264L201.878 36.5317L201.888 36.5368L202.314 35.632ZM207.298 41.904L206.364 42.2611L206.371 42.278L206.378 42.2945L207.298 41.904ZM208.418 46.328L207.427 46.4573L208.418 46.328ZM208.866 50.864L207.868 50.921L207.868 50.9227L208.866 50.864ZM208.866 59.936L207.868 59.879L207.867 59.8932L207.867 59.9074L208.866 59.936ZM208.474 64.584L209.466 64.7106L209.467 64.708L208.474 64.584ZM207.41 69.008L208.333 69.3947L208.337 69.3844L207.41 69.008ZM205.506 72.48L206.325 73.0535L206.33 73.0472L206.334 73.0408L205.506 72.48ZM202.37 75L201.976 74.0808L201.967 74.0851L202.37 75ZM190.618 55.176C190.618 57.653 190.674 59.7488 190.788 61.4585L192.784 61.3255C192.674 59.6752 192.618 57.6269 192.618 55.176H190.618ZM190.79 61.4805C190.943 63.2032 191.211 64.9605 191.592 66.7521L193.548 66.3359C193.183 64.6182 192.928 62.9408 192.782 61.3035L190.79 61.4805ZM191.598 66.7766C192.035 68.6059 192.755 70.1028 193.823 71.1711L195.237 69.7569C194.514 69.0332 193.927 67.9168 193.543 66.3114L191.598 66.7766ZM193.823 71.1711C194.925 72.2725 196.326 72.808 197.946 72.808V70.808C196.804 70.808 195.928 70.4475 195.237 69.7569L193.823 71.1711ZM197.946 72.808C199.268 72.808 200.45 72.4281 201.431 71.6332L200.173 70.0788C199.587 70.5533 198.864 70.808 197.946 70.808V72.808ZM201.453 71.6153C202.35 70.8463 203.052 69.9076 203.558 68.8111L201.742 67.9729C201.352 68.8178 200.822 69.5217 200.151 70.0967L201.453 71.6153ZM203.558 68.8111C204.056 67.7335 204.43 66.3902 204.7 64.8083L202.729 64.4717C202.476 65.9511 202.141 67.1092 201.742 67.9729L203.558 68.8111ZM204.701 64.8044C204.967 63.2037 205.14 61.6728 205.217 60.2126L203.22 60.1074C203.147 61.4845 202.984 62.9403 202.728 64.4756L204.701 64.8044ZM205.217 60.2126C205.293 58.7717 205.33 57.0921 205.33 55.176H203.33C203.33 57.0679 203.293 58.711 203.22 60.1074L205.217 60.2126ZM205.33 55.176C205.33 49.6524 204.799 45.3863 203.667 42.4665C203.098 40.9988 202.354 39.81 201.391 38.9827C200.41 38.1389 199.247 37.712 197.946 37.712V39.712C198.774 39.712 199.473 39.9711 200.087 40.4993C200.721 41.044 201.307 41.9132 201.802 43.1895C202.798 45.7577 203.33 49.7236 203.33 55.176H205.33ZM197.946 37.712C196.287 37.712 194.874 38.3323 193.783 39.5596L195.278 40.8884C195.979 40.0997 196.843 39.712 197.946 39.712V37.712ZM193.795 39.5457C192.744 40.685 192.031 42.246 191.596 44.1446L193.545 44.5914C193.931 42.906 194.525 41.7043 195.265 40.9023L193.795 39.5457ZM191.591 44.164C191.211 45.9895 190.944 47.7448 190.79 49.4295L192.782 49.6105C192.928 48.0098 193.183 46.3305 193.549 44.572L191.591 44.164ZM190.789 49.4504C190.675 51.0852 190.618 52.9948 190.618 55.176H192.618C192.618 53.0265 192.674 51.1654 192.784 49.5896L190.789 49.4504ZM197.946 74.84C196.643 74.84 195.489 74.6175 194.469 74.1898L193.696 76.0342C194.99 76.5772 196.412 76.84 197.946 76.84V74.84ZM194.443 74.1794C193.383 73.7691 192.55 73.254 191.915 72.651L190.537 74.101C191.396 74.9167 192.467 75.5589 193.721 76.0446L194.443 74.1794ZM191.915 72.651C191.274 72.0424 190.686 71.2152 190.166 70.1404L188.366 71.0116C188.966 72.2514 189.685 73.291 190.537 74.101L191.915 72.651ZM190.178 70.1644C189.674 69.0482 189.282 67.9769 188.998 66.9501L187.07 67.4819C187.384 68.6204 187.814 69.7891 188.355 70.9876L190.178 70.1644ZM189 66.9583C188.717 65.8951 188.482 64.6176 188.299 63.1189L186.314 63.3611C186.504 64.9238 186.754 66.2969 187.068 67.4737L189 66.9583ZM188.302 63.1429C188.154 61.6263 188.062 60.3232 188.026 59.2307L186.027 59.2973C186.065 60.4448 186.16 61.7924 186.311 63.3371L188.302 63.1429ZM188.026 59.2318C187.989 58.0882 187.97 56.7367 187.97 55.176H185.97C185.97 56.7513 185.989 58.1252 186.027 59.2962L188.026 59.2318ZM187.97 55.176C187.97 53.5854 188.007 52.1682 188.081 50.9227L186.084 50.8053C186.008 52.0984 185.97 53.5559 185.97 55.176H187.97ZM188.081 50.9227C188.153 49.6837 188.3 48.215 188.522 46.5133L186.539 46.2547C186.313 47.9877 186.16 49.5056 186.084 50.8053L188.081 50.9227ZM188.522 46.5133C188.738 44.8538 189.077 43.4402 189.528 42.2611L187.66 41.5469C187.14 42.9064 186.77 44.4795 186.539 46.2547L188.522 46.5133ZM189.519 42.2847C190.018 41.0719 190.625 39.9125 191.339 38.8061L189.658 37.7219C188.878 38.9301 188.215 40.1975 187.67 41.5232L189.519 42.2847ZM191.326 38.8248C192.009 37.8168 192.897 37.058 194.004 36.5368L193.152 34.7272C191.721 35.4007 190.555 36.3966 189.67 37.7032L191.326 38.8248ZM194.025 36.5264C195.136 35.9714 196.434 35.68 197.946 35.68V33.68C196.173 33.68 194.56 34.0233 193.131 34.7376L194.025 36.5264ZM197.946 35.68C199.458 35.68 200.757 35.9714 201.867 36.5264L202.761 34.7376C201.333 34.0233 199.72 33.68 197.946 33.68V35.68ZM201.888 36.5368C202.996 37.058 203.883 37.8168 204.566 38.8248L206.222 37.7032C205.337 36.3966 204.171 35.4007 202.74 34.7272L201.888 36.5368ZM204.566 38.8248C205.308 39.9204 205.907 41.0656 206.364 42.2611L208.232 41.5469C207.719 40.2037 207.048 38.9223 206.222 37.7032L204.566 38.8248ZM206.378 42.2945C206.856 43.4228 207.211 44.805 207.427 46.4573L209.41 46.1987C209.177 44.4163 208.786 42.8492 208.219 41.5134L206.378 42.2945ZM207.427 46.4573C207.648 48.1578 207.795 49.6448 207.868 50.921L209.865 50.8069C209.788 49.4698 209.636 47.9328 209.41 46.1987L207.427 46.4573ZM207.868 50.9227C207.941 52.1682 207.978 53.5854 207.978 55.176H209.978C209.978 53.5559 209.941 52.0984 209.865 50.8053L207.868 50.9227ZM207.978 55.176C207.978 57.0309 207.941 58.5974 207.868 59.879L209.865 59.993C209.941 58.6613 209.978 57.0544 209.978 55.176H207.978ZM207.867 59.9074C207.831 61.1728 207.703 62.6887 207.482 64.46L209.467 64.708C209.693 62.8953 209.827 61.3126 209.866 59.9646L207.867 59.9074ZM207.482 64.4574C207.265 66.1557 206.927 67.5404 206.484 68.6316L208.337 69.3844C208.864 68.0862 209.235 66.5217 209.466 64.7106L207.482 64.4574ZM206.488 68.6213C206.031 69.7111 205.429 70.8105 204.678 71.9192L206.334 73.0408C207.151 71.8348 207.819 70.6195 208.332 69.3947L206.488 68.6213ZM204.687 71.9065C204.014 72.8677 203.119 73.5912 201.976 74.0809L202.764 75.9191C204.235 75.2888 205.43 74.3323 206.325 73.0535L204.687 71.9065ZM201.967 74.0851C200.848 74.5784 199.516 74.84 197.946 74.84V76.84C199.737 76.84 201.354 76.5416 202.774 75.9149L201.967 74.0851Z" fill="black"/>
</svg>
